
<svg width="12px" height="21px" viewBox="0 0 12 21" version="1.1" xmlns="http://www.w3.org/2000/svg" xmlns:xlink="http://www.w3.org/1999/xlink">
    <g id="Design" stroke="none" stroke-width="1" fill="none" fill-rule="evenodd">
        <path d="M10.6875,0.25 C10.7786463,0.25 10.8632809,0.266275879 10.9414062,0.298828125 C11.0195316,0.331380371 11.0911455,0.380208008 11.15625,0.4453125 C11.286459,0.575521484 11.3515625,0.735025098 11.3515625,0.923828125 C11.3515625,1.11263115 11.286459,1.27213477 11.15625,1.40234375 L2.25,10.3085938 L11.0390625,19.0976562 C11.1692715,19.2278652 11.234375,19.3841137 11.234375,19.5664062 C11.234375,19.7486988 11.1692715,19.9049473 11.0390625,20.0351562 C10.9088535,20.1653652 10.7493499,20.2304688 10.5605469,20.2304688 C10.3717438,20.2304688 10.2122402,20.1653652 10.0820312,20.0351562 L0.82421875,10.7773438 C0.694009766,10.6471348 0.62890625,10.4908863 0.62890625,10.3085938 C0.62890625,10.1263012 0.694009766,9.97005273 0.82421875,9.83984375 L10.21875,0.4453125 C10.2838545,0.380208008 10.3587235,0.331380371 10.4433594,0.298828125 C10.5279952,0.266275879 10.6093746,0.25 10.6875,0.25 Z" id="Arrow-left---simple-line-icons" fill="#000000"></path>
    </g>
</svg>