
<svg width="128px" height="10px" viewBox="0 0 128 10" version="1.1" xmlns="http://www.w3.org/2000/svg" xmlns:xlink="http://www.w3.org/1999/xlink">
    <g id="Page-1" stroke="none" stroke-width="1" fill="none" fill-rule="evenodd">
        <g id="Humblebee_Lab" fill="#213548" fill-rule="nonzero">
            <path d="M2.782,3.504 C2.422,3.504 2.098,3.6 1.822,3.792 C1.546,3.996 1.366,4.296 1.294,4.704 L0.37,4.704 C0.406,4.32 0.514,3.996 0.67,3.732 C0.826,3.468 1.006,3.252 1.234,3.084 C1.462,2.928 1.702,2.808 1.978,2.736 C2.242,2.676 2.506,2.64 2.782,2.64 C3.07,2.64 3.358,2.676 3.646,2.76 C3.934,2.844 4.198,2.976 4.426,3.168 C4.654,3.36 4.846,3.612 4.99,3.912 C5.134,4.224 5.206,4.608 5.206,5.064 L5.206,9 L4.306,9 L4.306,8.364 C4.102,8.616 3.838,8.808 3.514,8.928 C3.178,9.06 2.794,9.12 2.374,9.12 C2.11,9.12 1.858,9.084 1.606,9.012 C1.354,8.94 1.138,8.832 0.958,8.676 C0.766,8.532 0.61,8.34 0.502,8.112 C0.382,7.884 0.322,7.608 0.322,7.284 C0.322,7.128 0.346,6.972 0.382,6.792 C0.418,6.612 0.49,6.444 0.598,6.276 C0.694,6.12 0.826,5.964 1.006,5.832 C1.174,5.7 1.39,5.592 1.666,5.508 C2.026,5.4 2.422,5.328 2.866,5.28 C3.298,5.244 3.778,5.196 4.306,5.16 L4.306,5.052 C4.306,4.8 4.27,4.572 4.186,4.368 C4.102,4.176 3.982,4.02 3.85,3.888 C3.706,3.756 3.538,3.66 3.358,3.6 C3.178,3.54 2.986,3.504 2.782,3.504 Z M4.306,5.964 C3.622,6.012 3.082,6.06 2.686,6.12 C2.278,6.18 1.966,6.264 1.762,6.372 C1.534,6.504 1.378,6.636 1.318,6.768 C1.258,6.912 1.222,7.08 1.222,7.26 C1.222,7.536 1.33,7.776 1.558,7.968 C1.774,8.16 2.11,8.256 2.566,8.256 C2.806,8.256 3.034,8.22 3.25,8.16 C3.454,8.1 3.646,8.004 3.802,7.872 C3.958,7.752 4.078,7.596 4.174,7.404 C4.258,7.224 4.306,7.008 4.306,6.768 L4.306,5.964 Z M23.902,0.6 L23.902,9 L22.294,9 L22.294,5.556 L19.174,5.556 L19.174,9 L17.566,9 L17.566,0.6 L19.174,0.6 L19.174,3.96 L22.294,3.96 L22.294,0.6 L23.902,0.6 Z M33.19,6.012 C33.19,6.476002 33.122,6.899998 32.986,7.284 C32.842,7.668002 32.634,7.995999 32.362,8.268 C32.09,8.540001 31.758,8.747999 31.366,8.892 C30.974,9.044001 30.526,9.12 30.022,9.12 C29.518,9.12 29.07,9.044001 28.678,8.892 C28.286,8.747999 27.954,8.540001 27.682,8.268 C27.41,7.995999 27.206,7.668002 27.07,7.284 C26.926,6.899998 26.854,6.476002 26.854,6.012 L26.854,0.6 L28.462,0.6 L28.462,6.012 C28.462,6.500002 28.614,6.871999 28.918,7.128 C29.214,7.392001 29.582,7.524 30.022,7.524 C30.462,7.524 30.834,7.392001 31.138,7.128 C31.434,6.871999 31.582,6.500002 31.582,6.012 L31.582,0.6 L33.19,0.6 L33.19,6.012 Z M37.738,3.72 L37.738,9 L36.142,9 L36.142,0.6 L37.75,0.6 L39.826,4.92 L41.902,0.6 L43.51,0.6 L43.51,9 L41.914,9 L41.914,3.72 L40.462,6.744 L39.19,6.744 L37.738,3.72 Z M50.05,0.6 C50.906,0.6 51.562,0.819998 52.018,1.26 C52.474,1.700002 52.702,2.283996 52.702,3.012 C52.702,3.364002 52.642,3.683999 52.522,3.972 C52.394,4.268001 52.202,4.511999 51.946,4.704 C52.242,4.928001 52.478,5.195998 52.654,5.508 C52.822,5.820002 52.906,6.163998 52.906,6.54 C52.906,7.284004 52.678,7.879998 52.222,8.328 C51.766,8.776002 51.106,9 50.242,9 L46.57,9 L46.57,0.6 L50.05,0.6 Z M50.29,7.404 C50.626,7.404 50.878,7.324001 51.046,7.164 C51.214,7.003999 51.298,6.776001 51.298,6.48 C51.298,6.175998 51.206,5.944001 51.022,5.784 C50.838,5.631999 50.594,5.556 50.29,5.556 L48.178,5.556 L48.178,7.404 L50.29,7.404 Z M51.094,3.072 C51.094,2.775999 51.002,2.556001 50.818,2.412 C50.634,2.267999 50.39,2.196 50.086,2.196 L48.178,2.196 L48.178,3.96 L50.086,3.96 C50.39,3.96 50.634,3.884001 50.818,3.732 C51.002,3.579999 51.094,3.360001 51.094,3.072 Z M60.682,7.404 L60.682,9 L55.57,9 L55.57,0.6 L57.178,0.6 L57.178,7.404 L60.682,7.404 Z M68.074,3.96 L68.074,5.556 L64.57,5.556 L64.57,7.404 L68.074,7.404 L68.074,9 L62.962,9 L62.962,0.6 L68.074,0.6 L68.074,2.196 L64.57,2.196 L64.57,3.96 L68.074,3.96 Z M74.422,0.6 C75.278,0.6 75.934,0.819998 76.39,1.26 C76.846,1.700002 77.074,2.283996 77.074,3.012 C77.074,3.364002 77.014,3.683999 76.894,3.972 C76.766,4.268001 76.574,4.511999 76.318,4.704 C76.614,4.928001 76.85,5.195998 77.026,5.508 C77.194,5.820002 77.278,6.163998 77.278,6.54 C77.278,7.284004 77.05,7.879998 76.594,8.328 C76.138,8.776002 75.478,9 74.614,9 L70.942,9 L70.942,0.6 L74.422,0.6 Z M74.662,7.404 C74.998,7.404 75.25,7.324001 75.418,7.164 C75.586,7.003999 75.67,6.776001 75.67,6.48 C75.67,6.175998 75.578,5.944001 75.394,5.784 C75.21,5.631999 74.966,5.556 74.662,5.556 L72.55,5.556 L72.55,7.404 L74.662,7.404 Z M75.466,3.072 C75.466,2.775999 75.374,2.556001 75.19,2.412 C75.006,2.267999 74.762,2.196 74.458,2.196 L72.55,2.196 L72.55,3.96 L74.458,3.96 C74.762,3.96 75.006,3.884001 75.19,3.732 C75.374,3.579999 75.466,3.360001 75.466,3.072 Z M85.054,3.96 L85.054,5.556 L81.55,5.556 L81.55,7.404 L85.054,7.404 L85.054,9 L79.942,9 L79.942,0.6 L85.054,0.6 L85.054,2.196 L81.55,2.196 L81.55,3.96 L85.054,3.96 Z M93.034,3.96 L93.034,5.556 L89.53,5.556 L89.53,7.404 L93.034,7.404 L93.034,9 L87.922,9 L87.922,0.6 L93.034,0.6 L93.034,2.196 L89.53,2.196 L89.53,3.96 L93.034,3.96 Z M105.538,0.6 L108.022,0.6 L108.022,8.136 L110.206,8.136 L110.206,9 L104.938,9 L104.938,8.136 L107.122,8.136 L107.122,1.464 L105.538,1.464 L105.538,0.6 Z M116.302,3.504 C115.942,3.504 115.618,3.6 115.342,3.792 C115.066,3.996 114.886,4.296 114.814,4.704 L113.89,4.704 C113.926,4.32 114.034,3.996 114.19,3.732 C114.346,3.468 114.526,3.252 114.754,3.084 C114.982,2.928 115.222,2.808 115.498,2.736 C115.762,2.676 116.026,2.64 116.302,2.64 C116.59,2.64 116.878,2.676 117.166,2.76 C117.454,2.844 117.718,2.976 117.946,3.168 C118.174,3.36 118.366,3.612 118.51,3.912 C118.654,4.224 118.726,4.608 118.726,5.064 L118.726,9 L117.826,9 L117.826,8.364 C117.622,8.616 117.358,8.808 117.034,8.928 C116.698,9.06 116.314,9.12 115.894,9.12 C115.63,9.12 115.378,9.084 115.126,9.012 C114.874,8.94 114.658,8.832 114.478,8.676 C114.286,8.532 114.13,8.34 114.022,8.112 C113.902,7.884 113.842,7.608 113.842,7.284 C113.842,7.128 113.866,6.972 113.902,6.792 C113.938,6.612 114.01,6.444 114.118,6.276 C114.214,6.12 114.346,5.964 114.526,5.832 C114.694,5.7 114.91,5.592 115.186,5.508 C115.546,5.4 115.942,5.328 116.386,5.28 C116.818,5.244 117.298,5.196 117.826,5.16 L117.826,5.052 C117.826,4.8 117.79,4.572 117.706,4.368 C117.622,4.176 117.502,4.02 117.37,3.888 C117.226,3.756 117.058,3.66 116.878,3.6 C116.698,3.54 116.506,3.504 116.302,3.504 Z M117.826,5.964 C117.142,6.012 116.602,6.06 116.206,6.12 C115.798,6.18 115.486,6.264 115.282,6.372 C115.054,6.504 114.898,6.636 114.838,6.768 C114.778,6.912 114.742,7.08 114.742,7.26 C114.742,7.536 114.85,7.776 115.078,7.968 C115.294,8.16 115.63,8.256 116.086,8.256 C116.326,8.256 116.554,8.22 116.77,8.16 C116.974,8.1 117.166,8.004 117.322,7.872 C117.478,7.752 117.598,7.596 117.694,7.404 C117.778,7.224 117.826,7.008 117.826,6.768 L117.826,5.964 Z M125.206,9.12 C124.93,9.12 124.642,9.06 124.354,8.928 C124.066,8.808 123.838,8.616 123.682,8.364 L123.682,9 L122.782,9 L122.782,0.6 L123.682,0.6 L123.682,3.396 C123.838,3.144 124.066,2.952 124.354,2.82 C124.642,2.7 124.93,2.64 125.206,2.64 C125.494,2.64 125.782,2.676 126.07,2.76 C126.358,2.844 126.622,2.976 126.85,3.168 C127.078,3.36 127.27,3.612 127.414,3.912 C127.558,4.224 127.63,4.608 127.63,5.064 L127.63,6.696 C127.63,7.152 127.558,7.536 127.414,7.836 C127.27,8.148 127.078,8.4 126.85,8.592 C126.622,8.784 126.358,8.916 126.07,9 C125.782,9.084 125.494,9.12 125.206,9.12 Z M126.73,5.052 C126.73,4.8 126.694,4.572 126.61,4.368 C126.526,4.176 126.406,4.02 126.274,3.888 C126.13,3.756 125.962,3.66 125.782,3.6 C125.602,3.54 125.41,3.504 125.206,3.504 C125.002,3.504 124.81,3.54 124.63,3.6 C124.45,3.66 124.282,3.756 124.15,3.888 C124.006,4.02 123.898,4.176 123.814,4.368 C123.73,4.572 123.682,4.8 123.682,5.052 L123.682,6.708 C123.682,6.96 123.73,7.188 123.814,7.38 C123.898,7.584 124.006,7.74 124.15,7.872 C124.282,8.004 124.45,8.1 124.63,8.16 C124.81,8.22 125.002,8.256 125.206,8.256 C125.41,8.256 125.602,8.22 125.782,8.16 C125.962,8.1 126.13,8.004 126.274,7.872 C126.406,7.74 126.526,7.584 126.61,7.38 C126.694,7.188 126.73,6.96 126.73,6.708 L126.73,5.052 Z" id="aHUMBLEBEElab"></path>
        </g>
    </g>
</svg>