<svg xmlns="http://www.w3.org/2000/svg" viewBox="0 0 393.1 201.15"><defs><style>.cls-1{fill:#efc0bf;}.cls-2{fill:#7154b0;}.cls-3{fill:#213548;}.cls-4{fill:#9d76f1;}</style></defs><title>Logo-Outlines</title><g id="Layer_2" data-name="Layer 2"><g id="Layer_1-2" data-name="Layer 1"><g id="Outlined"><path class="cls-1" d="M61.5,119.047a6.7,6.7,0,0,1-6.7,6.7,6.609,6.609,0,0,1-5.1-2.3,18.251,18.251,0,0,0-13.7-6.2c-10,0-17.925,6.916-19.917,16.9h0a21.263,21.263,0,0,0,7.531,12.647c.167-12.416,8.9-21.547,20.386-21.547a18.251,18.251,0,0,1,13.7,6.2,6.609,6.609,0,0,0,5.1,2.3,6.7,6.7,0,0,0,6.7-6.7,6.444,6.444,0,0,0-1.7-4.5,30.225,30.225,0,0,0-6.3-5.27Z"/><path class="cls-1" d="M62.8,160.547a6.726,6.726,0,0,0-1.47.165,5.869,5.869,0,0,1-1.53,2.935c-5.3,5.8-12.8,10-23.8,10a36.222,36.222,0,0,1-20.912-6.36c6.274,8.975,16.822,14.36,28.912,14.36,11,0,18.5-4.2,23.8-10a6.2,6.2,0,0,0,1.7-4.4,6.7,6.7,0,0,0-6.7-6.7Z"/><path class="cls-2" d="M61.5,109.047a6.444,6.444,0,0,0-1.7-4.5c-5.3-5.8-12.8-9.9-23.8-9.9-19.5,0-35,14-35,34.5v10c0,20.5,15.5,34.5,35,34.5,11,0,18.5-4.2,23.8-10a6.2,6.2,0,0,0,1.7-4.4v-10a6.7,6.7,0,0,0-6.7-6.7,6.862,6.862,0,0,0-5,2.2,18.025,18.025,0,0,1-13.8,6.3c-10,0-17.926-6.916-19.917-16.9h0c1.994-9.983,9.917-16.9,19.917-16.9a18.251,18.251,0,0,1,13.7,6.2,6.609,6.609,0,0,0,5.1,2.3,6.7,6.7,0,0,0,6.7-6.7Z"/><path class="cls-3" d="M36,174.647c-20.86,0-36-14.93-36-35.5v-10c0-20.569,15.14-35.5,36-35.5,10.082,0,18.338,3.441,24.538,10.226a7.4,7.4,0,0,1,1.962,5.184v9.99a7.691,7.691,0,0,1-7.8,7.7,7.588,7.588,0,0,1-5.759-2.649A17.24,17.24,0,0,0,36,118.248c-9.339,0-16.91,6.379-18.9,15.9,1.983,9.52,9.553,15.9,18.9,15.9a17.057,17.057,0,0,0,13.041-5.95,7.9,7.9,0,0,1,5.753-2.55,7.71,7.71,0,0,1,7.706,7.7v10a7.133,7.133,0,0,1-1.975,5.087C54.278,171.173,46.022,174.647,36,174.647Zm0-79c-19.7,0-34,14.089-34,33.5v10c0,19.411,14.3,33.5,34,33.5,9.57,0,17.114-3.165,23.062-9.675a5.178,5.178,0,0,0,1.438-3.7V149.248a5.707,5.707,0,0,0-5.7-5.7,5.876,5.876,0,0,0-4.266,1.88,18.968,18.968,0,0,1-14.423,6.62h-.117c-10.382,0-18.78-7.115-20.891-17.7l-.04-.2.04-.2c2.115-10.589,10.513-17.7,20.9-17.7a19.245,19.245,0,0,1,14.451,6.54,5.769,5.769,0,0,0,4.336,1.96,5.709,5.709,0,0,0,5.713-5.7V109.026a5.419,5.419,0,0,0-1.436-3.8C53.174,98.779,45.631,95.647,36,95.647Z"/><path class="cls-4" d="M1,129.147c0-20.5,15.5-34.5,35-34.5,11,0,18.5,4.1,23.8,9.9a6.444,6.444,0,0,1,1.7,4.5,6.7,6.7,0,0,1-6.7,6.7,6.609,6.609,0,0,1-5.1-2.3,18.251,18.251,0,0,0-13.7-6.2c-11.6,0-20.4,9.3-20.4,21.9s8.8,21.9,20.4,21.9a18.025,18.025,0,0,0,13.8-6.3,6.862,6.862,0,0,1,5-2.2,6.7,6.7,0,0,1,6.7,6.7,6.2,6.2,0,0,1-1.7,4.4c-5.3,5.8-12.8,10-23.8,10C16.5,163.647,1,149.647,1,129.147Z"/><path class="cls-3" d="M36,164.647c-20.86,0-36-14.93-36-35.5s15.14-35.5,36-35.5c10.082,0,18.338,3.441,24.538,10.226a7.406,7.406,0,0,1,1.962,5.2,7.691,7.691,0,0,1-7.8,7.68,7.588,7.588,0,0,1-5.759-2.649A17.24,17.24,0,0,0,36,108.248c-11.06,0-19.4,8.984-19.4,20.9,0,11.952,8.358,20.963,19.5,20.9a17,17,0,0,0,12.937-5.95,7.9,7.9,0,0,1,5.753-2.55,7.71,7.71,0,0,1,7.706,7.7,7.138,7.138,0,0,1-1.975,5.087C54.278,161.173,46.022,164.647,36,164.647Zm0-69c-19.7,0-34,14.089-34,33.5s14.3,33.5,34,33.5c9.57,0,17.114-3.165,23.062-9.675a5.178,5.178,0,0,0,1.438-3.7,5.711,5.711,0,0,0-5.7-5.722,5.876,5.876,0,0,0-4.266,1.88,18.968,18.968,0,0,1-14.423,6.62h-.117c-12.194,0-21.394-9.844-21.394-22.9s9.2-22.9,21.4-22.9a19.245,19.245,0,0,1,14.451,6.54A5.733,5.733,0,0,0,60.5,109.047a5.435,5.435,0,0,0-1.436-3.823C53.174,98.779,45.631,95.647,36,95.647Z"/><rect class="cls-3" x="48.703" y="113.45" width="2" height="10"/><path class="cls-1" d="M250.2,144.447v41.6A7.134,7.134,0,0,1,244,193.1v.948a7.215,7.215,0,0,0,7.2,7.1,7.108,7.108,0,0,0,7-7.1V164.825Z"/><path class="cls-1" d="M307.858,133.509a11.538,11.538,0,0,1,.444,3.139v49.4a7.209,7.209,0,0,1-6.3,7.039v.961a7.151,7.151,0,0,0,14.3,0v-49.4A11.594,11.594,0,0,0,307.858,133.509Z"/><path class="cls-1" d="M294,144.447l-18.1,46.1a4.182,4.182,0,0,1-1.911,2.115l2.311,5.885a4.076,4.076,0,0,0,7.6,0L294,172.825Z"/><path class="cls-2" d="M294,186.047v-41.6l-18.1,46.1a4.076,4.076,0,0,1-7.6,0l-18.1-46.1v41.6a7.108,7.108,0,0,1-7,7.1,7.215,7.215,0,0,1-7.2-7.1v-49.4a11.629,11.629,0,0,1,22.5-4.1l13.6,34.8,13.7-34.8a11.63,11.63,0,0,1,22.5,4.1v49.4a7.151,7.151,0,0,1-14.3,0Z"/><path class="cls-3" d="M272.1,194.152a5.094,5.094,0,0,1-4.736-3.243L251.2,149.731v36.316a8.144,8.144,0,0,1-7.985,8.1A8.258,8.258,0,0,1,235,186.063V136.647a12.629,12.629,0,0,1,12.627-12.6h.034a12.7,12.7,0,0,1,11.774,8.144L272.1,164.609l12.765-32.428a12.63,12.63,0,0,1,24.431,4.463v49.4a8.151,8.151,0,0,1-16.3.017V149.731l-16.169,41.182a5.091,5.091,0,0,1-4.728,3.239Zm-20.972-50.069,18.1,46.1a3.077,3.077,0,0,0,5.738,0l18.1-46.1,1.931.365v41.591a6.126,6.126,0,0,0,6.047,6.039,6.042,6.042,0,0,0,4.379-1.729,6.115,6.115,0,0,0,1.874-4.318V136.647a10.63,10.63,0,0,0-20.566-3.744L272.1,170.085l-14.528-37.173a10.69,10.69,0,0,0-9.912-6.864h-.028A10.63,10.63,0,0,0,237,136.65v49.4a6.241,6.241,0,0,0,6.2,6.1,6.132,6.132,0,0,0,6-6.1v-41.6Z"/><path class="cls-4" d="M294,176.047V136.693a.425.425,0,0,0-.82-.155L275.9,180.547a4.076,4.076,0,0,1-7.6,0l-17.281-44.013a.425.425,0,0,0-.82.155v39.358a7.108,7.108,0,0,1-7,7.1,7.215,7.215,0,0,1-7.2-7.1V127.023a11.885,11.885,0,0,1,11.8-11.971h.153a11.654,11.654,0,0,1,10.552,7.5l13.6,34.8,13.7-34.8a11.63,11.63,0,0,1,22.5,4.1v49.4a7.151,7.151,0,0,1-14.3,0Z"/><path class="cls-3" d="M272.1,184.152a5.094,5.094,0,0,1-4.736-3.243L251.2,139.733v36.314a8.144,8.144,0,0,1-7.985,8.1A8.258,8.258,0,0,1,235,176.063v-49.04a12.9,12.9,0,0,1,12.789-12.971h.16a12.626,12.626,0,0,1,11.487,8.145L272.1,154.614l12.766-32.428A12.63,12.63,0,0,1,309.3,126.65v49.4a8.151,8.151,0,0,1-16.3.017V139.733l-16.169,41.18a5.091,5.091,0,0,1-4.728,3.239ZM250.51,134.781a1.313,1.313,0,0,1,1.219.826l17.5,44.575a3.077,3.077,0,0,0,5.738,0l17.5-44.574a1.3,1.3,0,0,1,1.218-.83,1.383,1.383,0,0,1,.926.381,1.3,1.3,0,0,1,.386.928v39.948a6.151,6.151,0,0,0,12.3-.008V126.653a10.63,10.63,0,0,0-20.566-3.745L272.1,160.09l-14.528-37.173a10.622,10.622,0,0,0-9.649-6.865H247.8A10.9,10.9,0,0,0,237,127.016v49.031a6.241,6.241,0,0,0,6.2,6.1,6.132,6.132,0,0,0,6-6.1V136.091a1.312,1.312,0,0,1,1.31-1.31Z"/><rect class="cls-3" x="267.299" y="180.551" width="2" height="10"/><rect class="cls-3" x="274.899" y="180.551" width="2" height="10"/><path class="cls-1" d="M178.1,33.647v38.4a7.131,7.131,0,0,1-6.2,7.05v.95a7.215,7.215,0,0,0,7.2,7.1,7.106,7.106,0,0,0,7-7.1V44.908Z"/><path class="cls-1" d="M224.5,19.047a7.516,7.516,0,0,0-.9.061V70.447A8.674,8.674,0,0,1,212.5,78.8l3.3,4.646a8.586,8.586,0,0,0,7.1,3.7,8.707,8.707,0,0,0,8.7-8.7v-52.3A7.129,7.129,0,0,0,224.5,19.047Z"/><path class="cls-2" d="M207.8,75.447l-29.7-41.8v38.4a7.106,7.106,0,0,1-7,7.1,7.215,7.215,0,0,1-7.2-7.1v-51.7a9.319,9.319,0,0,1,16.9-5.4l28.6,40v-36.8a7.1,7.1,0,0,1,14.2-.009V70.447a8.706,8.706,0,0,1-8.7,8.7A8.586,8.586,0,0,1,207.8,75.447Z"/><path class="cls-3" d="M214.858,80.147a9.585,9.585,0,0,1-7.877-4.126L179.1,36.781V72.047a8.143,8.143,0,0,1-7.985,8.1,8.258,8.258,0,0,1-8.215-8.084V20.347a10.331,10.331,0,0,1,10.319-10.3h.022a10.339,10.339,0,0,1,8.372,4.318L208.4,51.83V18.147a8.1,8.1,0,0,1,8.094-8.1h.007a8.1,8.1,0,0,1,8.1,8.1V70.447a9.721,9.721,0,0,1-9.7,9.7ZM177.1,30.514l31.522,44.364a7.586,7.586,0,0,0,6.239,3.269h.035a7.719,7.719,0,0,0,7.7-7.7v-52.3a6.1,6.1,0,0,0-6.1-6.1h0a6.1,6.1,0,0,0-6.1,6.1V58.065L179.986,15.529a8.338,8.338,0,0,0-6.749-3.481h-.018a8.329,8.329,0,0,0-8.319,8.3v51.7a6.242,6.242,0,0,0,6.2,6.1,6.13,6.13,0,0,0,6-6.1Z"/><path class="cls-4" d="M207.8,65.447l-29.7-41.8v38.4a7.106,7.106,0,0,1-7,7.1,7.215,7.215,0,0,1-7.2-7.1v-51.7a9.319,9.319,0,0,1,16.9-5.4l28.6,40V8.147a7.1,7.1,0,0,1,14.2-.009V60.447a8.706,8.706,0,0,1-8.7,8.7A8.586,8.586,0,0,1,207.8,65.447Z"/><path class="cls-3" d="M214.858,70.147a9.585,9.585,0,0,1-7.877-4.126L179.1,26.781V62.047a8.143,8.143,0,0,1-7.985,8.1,8.258,8.258,0,0,1-8.215-8.084V10.347A10.331,10.331,0,0,1,173.219.048h.022a10.339,10.339,0,0,1,8.372,4.318L208.4,41.83V8.147a8.1,8.1,0,0,1,8.094-8.1h.007a8.1,8.1,0,0,1,8.1,8.1V60.447a9.721,9.721,0,0,1-9.7,9.7ZM177.1,20.514l31.522,44.364a7.586,7.586,0,0,0,6.239,3.269h.035a7.719,7.719,0,0,0,7.7-7.7V8.147a6.1,6.1,0,0,0-6.1-6.1h0a6.1,6.1,0,0,0-6.1,6.1V48.065L179.986,5.529a8.338,8.338,0,0,0-6.749-3.481h-.018a8.329,8.329,0,0,0-8.319,8.3v51.7a6.242,6.242,0,0,0,6.2,6.1,6.13,6.13,0,0,0,6-6.1Z"/><rect class="cls-3" x="206.801" y="65.451" width="2" height="10"/><rect class="cls-3" x="129.102" y="84.352" width="2" height="10"/><path class="cls-1" d="M130.066,94.347l-2.7-7.8h-30l-2.7,7.8a7.111,7.111,0,0,1-5.934,4.731,6.494,6.494,0,0,0-.067.869,7.207,7.207,0,0,0,14,2.4l2.7-7.8H130.15C130.125,94.482,130.089,94.42,130.066,94.347Z"/><path class="cls-1" d="M151.467,97.447l-7.4-19.226V91.947a7.247,7.247,0,0,1-7.11,7.191l1.11,3.209a7.03,7.03,0,0,0,6.7,4.8,7.255,7.255,0,0,0,7.3-7.2A6.561,6.561,0,0,0,151.467,97.447Z"/><polygon class="cls-1" points="112.365 44.048 105.312 64.142 116.12 64.142 117.769 59.444 112.365 44.048"/><path class="cls-2" d="M122.966,74.247l-10.6-30.2-10.6,30.2Zm-42.3,7.7a6.542,6.542,0,0,1,.5-2.5l19.5-50.4a12.556,12.556,0,0,1,23.4,0l19.4,50.4a6.561,6.561,0,0,1,.6,2.5v10a7.255,7.255,0,0,1-7.3,7.2,7.03,7.03,0,0,1-6.7-4.8l-2.7-7.8h-30l-2.7,7.8a7.207,7.207,0,0,1-14-2.4Z"/><path class="cls-3" d="M87.879,100.151a8.222,8.222,0,0,1-8.213-8.2v-10a7.52,7.52,0,0,1,.576-2.881L99.733,28.687a13.556,13.556,0,0,1,25.265,0l19.4,50.4a7.4,7.4,0,0,1,.666,2.821V91.947a8.276,8.276,0,0,1-8.306,8.2h-.037a8.011,8.011,0,0,1-7.605-5.482l-2.464-7.118H98.078l-2.467,7.127a8.224,8.224,0,0,1-7.732,5.477Zm-6.213-18.2v10a6.207,6.207,0,0,0,12.058,2.066l2.93-8.466h31.424l2.933,8.473a6.023,6.023,0,0,0,5.723,4.127h.067a6.266,6.266,0,0,0,6.265-6.207V81.947a5.493,5.493,0,0,0-.508-2.08l-19.425-50.46a11.555,11.555,0,0,0-21.535,0l-19.5,50.4A5.557,5.557,0,0,0,81.666,81.949Zm42.71-6.7H100.354l12.011-34.22Zm-21.2-2h18.379l-9.19-26.181Z"/><path class="cls-4" d="M136.767,88.647a6.56,6.56,0,0,1-6.225-4.453l-2.82-8.147H97.008l-2.817,8.138a6.635,6.635,0,0,1-6.328,4.462,6.706,6.706,0,0,1-6.7-6.7,6.074,6.074,0,0,1,.46-2.3l19.507-50.42a11.925,11.925,0,0,1,11.235-7.68A12.076,12.076,0,0,1,123.6,29.226l19.4,50.4a6.065,6.065,0,0,1,.566,2.321A6.756,6.756,0,0,1,136.767,88.647Zm-24.4-52.315a1.86,1.86,0,0,0-1.774,1.257l-9.534,27.158h22.612L114.14,37.593a1.859,1.859,0,0,0-1.775-1.257Z"/><path class="cls-2" d="M112.365,22.047a11.573,11.573,0,0,1,10.767,7.36l19.416,50.44a5.541,5.541,0,0,1,.518,2.107,6.258,6.258,0,0,1-6.3,6.2,6.061,6.061,0,0,1-5.756-4.128l-2.7-7.8-.233-.673H96.652l-.233.673-2.707,7.821a6.208,6.208,0,0,1-12.049-2.1,5.6,5.6,0,0,1,.433-2.139L101.6,29.4a11.426,11.426,0,0,1,10.769-7.354m-12.011,43.2h24.023l-.468-1.332-9.3-26.49a2.38,2.38,0,0,0-4.492,0l-9.3,26.49-.467,1.332m12.015-44.2a12.437,12.437,0,0,0-11.7,8l-19.5,50.4a6.542,6.542,0,0,0-.5,2.5,7.207,7.207,0,0,0,14,2.4l2.7-7.8h30l2.7,7.8a7.03,7.03,0,0,0,6.7,4.8,7.255,7.255,0,0,0,7.3-7.2,6.561,6.561,0,0,0-.6-2.5l-19.4-50.4A12.535,12.535,0,0,0,112.365,21.047Zm-10.6,43.2,9.3-26.491a1.381,1.381,0,0,1,2.605,0l9.3,26.491Z"/><path class="cls-3" d="M136.812,90.147h-.089a8.011,8.011,0,0,1-7.605-5.482l-2.464-7.118H98.078l-2.467,7.127a8.207,8.207,0,0,1-15.945-2.726,7.524,7.524,0,0,1,.576-2.884L99.733,28.687a13.556,13.556,0,0,1,25.265,0l19.4,50.4a7.4,7.4,0,0,1,.666,2.821v.046A8.266,8.266,0,0,1,136.812,90.147Zm-24.433-68.1A11.574,11.574,0,0,0,101.6,29.41l-19.5,50.4a5.557,5.557,0,0,0-.433,2.141,6.207,6.207,0,0,0,12.058,2.064l2.93-8.466h31.424l2.933,8.473a6.023,6.023,0,0,0,5.723,4.127h.067a6.267,6.267,0,0,0,6.265-6.184,5.531,5.531,0,0,0-.508-2.1l-19.425-50.46a11.556,11.556,0,0,0-10.754-7.36Zm12,43.2H100.355l9.768-27.824a2.38,2.38,0,0,1,4.485-.005Zm-21.2-2h18.378l-8.832-25.162a.38.38,0,0,0-.715.005Z"/><rect class="cls-3" x="93.664" y="84.352" width="2" height="10"/><rect class="cls-3" x="96.364" y="76.55" width="2" height="10"/><rect class="cls-3" x="126.366" y="76.55" width="2" height="10"/><rect class="cls-3" x="129.066" y="84.352" width="2" height="10"/><rect class="cls-3" x="111.365" y="36.835" width="2" height="7.213"/><path class="cls-1" d="M135.5,147.247c0,7.728-3.182,13.109-7.437,16.407l-.033.024,6.07,8.271a7.762,7.762,0,0,1,.484.735c4.973-3.15,8.916-8.838,8.916-17.437,0-7.2-2.879-13.267-8-17.107Z"/><path class="cls-1" d="M135.5,180.957v5.49a6.922,6.922,0,0,1-6.8,6.7,7.169,7.169,0,0,1-1.489-.168l3.589,5.168a7.321,7.321,0,0,0,5.9,3,7,7,0,0,0,5.4-11.2Z"/><path class="cls-1" d="M107.8,168.547H96.1v17.5a7.132,7.132,0,0,1-6.2,7.052v.948a7.216,7.216,0,0,0,7.2,7.1,7.108,7.108,0,0,0,7-7.1v-17.5h9.256Z"/><path class="cls-1" d="M114.147,145.947a9.136,9.136,0,0,0,5.436-3.8,9.914,9.914,0,0,0-8.583-4.2H96.1v8.4h8Z"/><path class="cls-2" d="M96.1,156.347H111c5.7,0,10-3.6,10-9.2s-4.3-9.2-10-9.2H96.1Zm39.4-19.1v10c0,7.728-3.182,13.109-7.437,16.407l-.033.024,6.07,8.271a6.916,6.916,0,0,1,1.4,4.5v10a6.922,6.922,0,0,1-6.8,6.7,7.321,7.321,0,0,1-5.9-3l-15-21.6H96.1v17.5a7.108,7.108,0,0,1-7,7.1,7.216,7.216,0,0,1-7.2-7.1v-62.8c0-4.8,2.7-7.5,7.5-7.5h23.7c13.9,0,22.4,9.1,22.4,21.5"/><path class="cls-3" d="M128.717,194.149a8.357,8.357,0,0,1-6.724-3.41l-14.716-21.19H97.1v16.5a8.143,8.143,0,0,1-7.985,8.1,8.26,8.26,0,0,1-8.215-8.083V123.248c0-5.323,3.178-8.5,8.5-8.5h23.7c14,0,23.4,9.042,23.4,22.5v10c0,8.584-3.7,13.711-7.1,16.608l5.506,7.5A7.917,7.917,0,0,1,136.5,176.5v9.954A7.919,7.919,0,0,1,128.717,194.149ZM95.1,167.549h13.223l15.3,22.03a6.338,6.338,0,0,0,5.081,2.57,5.911,5.911,0,0,0,5.8-5.732V176.45a5.962,5.962,0,0,0-1.2-3.9l-6.683-9.1.832-.588c3.214-2.49,7.047-7.224,7.047-15.613v-10c0-12.262-8.6-20.5-21.4-20.5H89.4c-4.253,0-6.5,2.248-6.5,6.5v62.8a6.243,6.243,0,0,0,6.2,6.1,6.132,6.132,0,0,0,6-6.1Zm15.9-10.2H95.1v-20.4H111c6.477,0,11,4.194,11,10.2S117.477,157.347,111,157.347Zm-13.9-2H111c5.383,0,9-3.3,9-8.2s-3.617-8.2-9-8.2H97.1Z"/><path class="cls-4" d="M134.1,171.947a7,7,0,0,1-5.4,11.2,7.321,7.321,0,0,1-5.9-3l-15-21.6H96.1v17.5a7.108,7.108,0,0,1-7,7.1,7.216,7.216,0,0,1-7.2-7.1v-52.8c0-4.8,2.7-7.5,7.5-7.5h23.7c13.9,0,22.4,9.1,22.4,21.5,0,10.7-6.1,16.9-12.7,19.3Zm-38-25.6H111c5.7,0,10-3.6,10-9.2s-4.3-9.2-10-9.2H96.1Z"/><path class="cls-3" d="M89.115,184.147a8.26,8.26,0,0,1-8.215-8.083V123.248c0-5.323,3.178-8.5,8.5-8.5h23.7c14,0,23.4,9.042,23.4,22.5,0,9.149-4.507,16.435-12.13,19.75L134.9,171.352a8,8,0,0,1-6.174,12.795,8.363,8.363,0,0,1-6.736-3.41l-14.716-21.19H97.1v16.5A8.143,8.143,0,0,1,89.115,184.147Zm5.985-26.6h13.223l15.3,22.03a6.338,6.338,0,0,0,5.081,2.57,6,6,0,0,0,4.6-9.6l-.006-.008-12.089-16.476,1.253-.456C130,152.866,134.5,146,134.5,137.248c0-12.262-8.6-20.5-21.4-20.5H89.4c-4.253,0-6.5,2.248-6.5,6.5v52.8a6.243,6.243,0,0,0,6.2,6.1,6.132,6.132,0,0,0,6-6.1Zm15.9-10.2H95.1v-20.4H111c6.477,0,11,4.194,11,10.2S117.477,147.347,111,147.347Zm-13.9-2H111c5.383,0,9-3.3,9-8.2s-3.617-8.2-9-8.2H97.1Z"/><rect class="cls-3" x="106.801" y="158.55" width="2" height="10"/><rect class="cls-3" x="121.801" y="180.151" width="2" height="10"/><rect class="cls-3" x="110.001" y="127.949" width="2" height="10"/><path class="cls-1" d="M309.223,50.525a39.458,39.458,0,0,1,.277,4.622v10c0,20.1-14.5,33.3-35.4,33.3H255.8v.4c0,4.9,2.7,7.6,7.5,7.6h18.8c20.9,0,35.4-13.2,35.4-33.3C317.5,63.987,314.48,56.247,309.223,50.525Z"/><path class="cls-1" d="M270,52.247h12.1a23.281,23.281,0,0,1,10.53,2.292c-3.142-6.216-9.377-10.292-18.53-10.292H262v31.7h8Z"/><path class="cls-2" d="M274.1,21.747H255.3c-4.8,0-7.5,2.7-7.5,7.5v61.6c0,4.9,2.7,7.6,7.5,7.6h18.8c20.9,0,35.4-13.2,35.4-33.3v-10C309.5,35.047,295,21.747,274.1,21.747Zm0,64.2H262v-41.7h12.1c13.7,0,20.9,9.1,20.9,20.9C295,76.447,287.3,85.947,274.1,85.947Z"/><path class="cls-3" d="M274.1,86.947H261v-43.7h13.1c13.3,0,21.9,8.6,21.9,21.9C296,77.983,286.994,86.947,274.1,86.947Zm-11.1-2h11.1c11.716,0,19.9-8.142,19.9-19.8,0-12.274-7.625-19.9-19.9-19.9H263Z"/><path class="cls-3" d="M274.1,99.447H255.3c-5.4,0-8.5-3.135-8.5-8.6v-61.6c0-5.323,3.178-8.5,8.5-8.5h18.8c21.772,0,36.4,13.824,36.4,34.4v10C310.5,85.663,295.872,99.447,274.1,99.447Zm-18.8-76.7c-4.252,0-6.5,2.247-6.5,6.5v61.6c0,4.318,2.248,6.6,6.5,6.6h18.8c20.576,0,34.4-12.98,34.4-32.3v-10c0-19.379-13.824-32.4-34.4-32.4Z"/><path class="cls-4" d="M247.8,80.847v-51.6c0-4.8,2.7-7.5,7.5-7.5h18.8c20.9,0,35.4,13.3,35.4,33.4s-14.5,33.3-35.4,33.3H255.3C250.5,88.447,247.8,85.747,247.8,80.847Zm26.3-4.9c13.2,0,20.9-9.5,20.9-20.8,0-11.8-7.2-20.9-20.9-20.9H262v41.7Z"/><path class="cls-3" d="M274.1,89.447H255.3c-5.4,0-8.5-3.135-8.5-8.6v-51.6c0-5.323,3.178-8.5,8.5-8.5h18.8c21.772,0,36.4,13.824,36.4,34.4C310.5,75.663,295.872,89.447,274.1,89.447Zm-18.8-66.7c-4.252,0-6.5,2.247-6.5,6.5v51.6c0,4.318,2.248,6.6,6.5,6.6h18.8c20.576,0,34.4-12.98,34.4-32.3,0-19.379-13.824-32.4-34.4-32.4Zm18.8,54.2H261v-43.7h13.1c13.3,0,21.9,8.6,21.9,21.9C296,67.983,286.994,76.947,274.1,76.947Zm-11.1-2h11.1c11.716,0,19.9-8.142,19.9-19.8,0-12.274-7.625-19.9-19.9-19.9H263Z"/><rect class="cls-3" x="273.099" y="34.249" width="2" height="10"/><path class="cls-1" d="M15.2,28.5h8V26.147a7.051,7.051,0,0,0-8-7.037Z"/><path class="cls-1" d="M61.9,19.047a7.516,7.516,0,0,0-.9.061V72.047a7.21,7.21,0,0,1-6.3,7.038v.962a7.15,7.15,0,0,0,14.3,0v-53.9A7.129,7.129,0,0,0,61.9,19.047Z"/><path class="cls-1" d="M46.7,50.447H15.2v21.6A7.13,7.13,0,0,1,9,79.1v.946a7.213,7.213,0,0,0,7.2,7.1,7.106,7.106,0,0,0,7-7.1v-21.6H46.7Z"/><path class="cls-2" d="M46.7,72.047v-21.6H15.2v21.6a7.106,7.106,0,0,1-7,7.1,7.213,7.213,0,0,1-7.2-7.1v-53.9a7.1,7.1,0,0,1,14.2,0v19.8H46.7v-19.8a7.15,7.15,0,0,1,14.3,0v53.9a7.15,7.15,0,0,1-14.3,0Z"/><path class="cls-3" d="M53.85,80.195h0A8.16,8.16,0,0,1,45.7,72.048v-20.6H16.2v20.6a8.143,8.143,0,0,1-7.985,8.1A8.256,8.256,0,0,1,0,72.063V18.147a8.11,8.11,0,0,1,8.1-8.1h0a8.11,8.11,0,0,1,8.1,8.1v18.8H45.7v-18.8A8.15,8.15,0,0,1,53.85,10h0A8.159,8.159,0,0,1,62,18.147v53.9A8.159,8.159,0,0,1,53.85,80.195ZM47.7,72.047a6.159,6.159,0,0,0,6.148,6.148h0A6.157,6.157,0,0,0,60,72.047v-53.9A6.157,6.157,0,0,0,53.852,12h0a6.157,6.157,0,0,0-6.15,6.148v20.8H14.2v-20.8a6.108,6.108,0,0,0-6.1-6.1h0a6.1,6.1,0,0,0-6.1,6.1v53.9a6.241,6.241,0,0,0,6.2,6.1,6.13,6.13,0,0,0,6-6.1v-22.6H47.7v22.6Z"/><path class="cls-4" d="M46.7,62.047v-21.6H15.2v21.6a7.106,7.106,0,0,1-7,7.1,7.213,7.213,0,0,1-7.2-7.1V8.147a7.1,7.1,0,0,1,14.2,0v19.8H46.7V8.147a7.15,7.15,0,0,1,14.3,0v53.9a7.15,7.15,0,0,1-14.3,0Z"/><path class="cls-3" d="M53.85,70.195h0A8.16,8.16,0,0,1,45.7,62.048v-20.6H16.2v20.6a8.143,8.143,0,0,1-7.985,8.1A8.256,8.256,0,0,1,0,62.063V8.147A8.11,8.11,0,0,1,8.1.046h0a8.11,8.11,0,0,1,8.1,8.1v18.8H45.7V8.147A8.15,8.15,0,0,1,53.85,0h0A8.159,8.159,0,0,1,62,8.147v53.9A8.159,8.159,0,0,1,53.85,70.195ZM47.7,62.047a6.159,6.159,0,0,0,6.148,6.148h0A6.157,6.157,0,0,0,60,62.047V8.147A6.157,6.157,0,0,0,53.852,2h0A6.157,6.157,0,0,0,47.7,8.148v20.8H14.2V8.147a6.108,6.108,0,0,0-6.1-6.1h0A6.1,6.1,0,0,0,2,8.147v53.9a6.241,6.241,0,0,0,6.2,6.1,6.13,6.13,0,0,0,6-6.1v-22.6H47.7v22.6Z"/><path class="cls-1" d="M203.2,168.347l-2.7-7.8h-30l-2.7,7.8a7.111,7.111,0,0,1-5.934,4.731,6.494,6.494,0,0,0-.067.869,7.207,7.207,0,0,0,14,2.4l2.7-7.8h24.785C203.26,168.482,203.224,168.42,203.2,168.347Z"/><path class="cls-1" d="M224.6,171.447l-7.4-19.226v13.726a7.248,7.248,0,0,1-7.111,7.191l1.111,3.209a7.028,7.028,0,0,0,6.7,4.8,7.255,7.255,0,0,0,7.3-7.2A6.561,6.561,0,0,0,224.6,171.447Z"/><polygon class="cls-1" points="185.5 118.048 178.448 138.142 189.256 138.142 190.904 133.444 185.5 118.048"/><path class="cls-2" d="M196.1,148.247l-10.6-30.2-10.6,30.2Zm-42.3,7.7a6.58,6.58,0,0,1,.5-2.5l19.5-50.4a12.557,12.557,0,0,1,23.4,0l19.4,50.4a6.561,6.561,0,0,1,.6,2.5v10a7.255,7.255,0,0,1-7.3,7.2,7.028,7.028,0,0,1-6.7-4.8l-2.7-7.8h-30l-2.7,7.8a7.207,7.207,0,0,1-14-2.4Z"/><path class="cls-3" d="M161,174.147a8.21,8.21,0,0,1-8.2-8.2v-10a7.531,7.531,0,0,1,.576-2.881l19.491-50.378a13.557,13.557,0,0,1,25.265,0l19.4,50.4a7.394,7.394,0,0,1,.666,2.822v10.038a8.269,8.269,0,0,1-8.255,8.2h-.09a8.008,8.008,0,0,1-7.6-5.482l-2.464-7.118H171.212l-2.467,7.127A8.226,8.226,0,0,1,161,174.147Zm-6.2-18.2v10a6.207,6.207,0,0,0,12.057,2.065l2.931-8.466h31.424l2.934,8.473a6.075,6.075,0,0,0,5.75,4.127h.039a6.266,6.266,0,0,0,6.265-6.207v-9.992a5.493,5.493,0,0,0-.508-2.08l-19.425-50.461a11.557,11.557,0,0,0-21.536,0l-19.5,50.4A5.575,5.575,0,0,0,154.8,155.95Zm42.711-6.7H173.489l12.011-34.22Zm-21.2-2h18.378L185.5,121.067Z"/><path class="cls-4" d="M209.9,162.647a6.557,6.557,0,0,1-6.224-4.453l-2.818-8.147H170.144l-2.817,8.138A6.637,6.637,0,0,1,161,162.647a6.707,6.707,0,0,1-6.7-6.7,6.074,6.074,0,0,1,.46-2.3l19.508-50.42a11.924,11.924,0,0,1,11.232-7.68,12.074,12.074,0,0,1,11.234,7.679l19.4,50.4a6.065,6.065,0,0,1,.566,2.321A6.758,6.758,0,0,1,209.9,162.647Zm-24.4-52.315a1.86,1.86,0,0,0-1.774,1.257l-9.532,27.158h22.613l-9.532-27.157a1.86,1.86,0,0,0-1.775-1.254Z"/><path class="cls-2" d="M185.5,96.047a11.57,11.57,0,0,1,10.767,7.36l19.416,50.44a5.543,5.543,0,0,1,.519,2.107,6.256,6.256,0,0,1-6.3,6.2,6.06,6.06,0,0,1-5.755-4.127l-2.7-7.8-.232-.673H169.787l-.232.673-2.708,7.82a6.208,6.208,0,0,1-12.047-2.1,5.6,5.6,0,0,1,.433-2.139l19.5-50.407A11.428,11.428,0,0,1,185.5,96.047m-12.011,43.2h24.023l-.467-1.332-9.3-26.49a2.381,2.381,0,0,0-4.493,0l-9.3,26.49-.467,1.332m12.015-44.2a12.437,12.437,0,0,0-11.7,8l-19.5,50.4a6.58,6.58,0,0,0-.5,2.5,7.207,7.207,0,0,0,14,2.4l2.7-7.8h30l2.7,7.8a7.028,7.028,0,0,0,6.7,4.8,7.255,7.255,0,0,0,7.3-7.2,6.561,6.561,0,0,0-.6-2.5l-19.4-50.4A12.535,12.535,0,0,0,185.5,95.047Zm-10.6,43.2,9.3-26.491a1.381,1.381,0,0,1,2.6,0l9.3,26.491Z"/><path class="cls-3" d="M161,164.147a8.21,8.21,0,0,1-8.2-8.2,7.535,7.535,0,0,1,.576-2.884l19.491-50.378a13.557,13.557,0,0,1,25.265,0l19.4,50.4a7.394,7.394,0,0,1,.666,2.822v.046a8.268,8.268,0,0,1-8.255,8.191h-.09a8.008,8.008,0,0,1-7.6-5.482l-2.464-7.118H171.212l-2.467,7.127A8.226,8.226,0,0,1,161,164.147Zm24.514-68.1a11.578,11.578,0,0,0-10.782,7.362l-19.5,50.4a5.575,5.575,0,0,0-.432,2.142,6.207,6.207,0,0,0,12.057,2.063l2.931-8.466h31.424l2.934,8.473a6.018,6.018,0,0,0,5.72,4.127h.069a6.268,6.268,0,0,0,6.265-6.184,5.526,5.526,0,0,0-.508-2.095l-19.425-50.461a11.559,11.559,0,0,0-10.754-7.358Zm12,43.2H173.489l9.768-27.824a2.38,2.38,0,0,1,4.485,0Zm-21.2-2h18.378l-8.833-25.162a.371.371,0,0,0-.193-.211.381.381,0,0,0-.52.215Z"/><rect class="cls-3" x="166.799" y="158.351" width="2" height="10"/><rect class="cls-3" x="169.499" y="150.55" width="2" height="10"/><rect class="cls-3" x="199.501" y="150.55" width="2" height="10"/><rect class="cls-3" x="202.202" y="158.351" width="2" height="10"/><rect class="cls-3" x="184.5" y="110.835" width="2" height="7.213"/><path class="cls-1" d="M353.7,125.947h15.1a12.259,12.259,0,0,1,1.744.133c-.508-4.905-4.514-8.133-9.744-8.133H345.7v18.4h8Z"/><path class="cls-1" d="M385.1,118.136v9.111c0,11.6-8,21.3-22.4,21.3h-17v17.5a7.134,7.134,0,0,1-6.2,7.052v.948a7.215,7.215,0,0,0,7.2,7.1,7.108,7.108,0,0,0,7-7.1v-17.5h17c14.4,0,22.4-9.7,22.4-21.3C393.1,128.339,390.343,122.094,385.1,118.136Z"/><path class="cls-2" d="M360.8,117.947H345.7v18.4h15.1c5.6,0,9.8-3.6,9.8-9.2C370.6,121.647,366.4,117.947,360.8,117.947Zm-29.3,38.1v-52.8c0-4.8,2.7-7.5,7.5-7.5h23.7c14.5,0,22.4,9.8,22.4,21.5v10c0,11.6-8,21.3-22.4,21.3h-17v17.5a7.108,7.108,0,0,1-7,7.1,7.215,7.215,0,0,1-7.2-7.1Z"/><path class="cls-3" d="M338.715,174.147a8.258,8.258,0,0,1-8.215-8.084V103.248c0-5.323,3.178-8.5,8.5-8.5h23.7c16.164,0,23.4,11.3,23.4,22.5v10c0,13.129-9.622,22.3-23.4,22.3h-16v16.5A8.144,8.144,0,0,1,338.715,174.147Zm.285-77.4c-4.252,0-6.5,2.247-6.5,6.5v62.8a6.241,6.241,0,0,0,6.2,6.1,6.132,6.132,0,0,0,6-6.1v-18.5h18c14.782,0,21.4-10.195,21.4-20.3v-10c0-10.2-6.618-20.5-21.4-20.5Zm21.8,40.6H344.7v-20.4h16.1c6.258,0,10.8,4.289,10.8,10.2C371.6,133.153,367.158,137.347,360.8,137.347Zm-14.1-2h14.1c5.263,0,8.8-3.3,8.8-8.2,0-4.827-3.619-8.2-8.8-8.2H346.7Z"/><path class="cls-4" d="M331.5,156.047v-52.8c0-4.8,2.7-7.5,7.5-7.5h23.7c14.5,0,22.4,9.8,22.4,21.5,0,11.6-8,21.3-22.4,21.3h-17v17.5a7.108,7.108,0,0,1-7,7.1A7.215,7.215,0,0,1,331.5,156.047Zm29.3-48.1H345.7v18.4h15.1c5.6,0,9.8-3.6,9.8-9.2C370.6,111.647,366.4,107.947,360.8,107.947Z"/><path class="cls-3" d="M338.715,164.147a8.258,8.258,0,0,1-8.215-8.084V103.248c0-5.323,3.178-8.5,8.5-8.5h23.7c16.164,0,23.4,11.3,23.4,22.5,0,13.129-9.622,22.3-23.4,22.3h-16v16.5A8.144,8.144,0,0,1,338.715,164.147ZM332.5,156.04a6.244,6.244,0,0,0,6.2,6.107,6.132,6.132,0,0,0,6-6.1v-18.5h18c14.782,0,21.4-10.195,21.4-20.3,0-10.2-6.618-20.5-21.4-20.5H339c-4.252,0-6.5,2.247-6.5,6.5Zm28.3-28.693H344.7v-20.4h16.1c6.258,0,10.8,4.289,10.8,10.2C371.6,123.153,367.158,127.347,360.8,127.347Zm-14.1-2h14.1c5.263,0,8.8-3.295,8.8-8.2,0-4.827-3.619-8.2-8.8-8.2H346.7Z"/><rect class="cls-3" x="359.799" y="107.949" width="2" height="10"/></g></g></g></svg>