<?xml version="1.0" encoding="UTF-8"?>
<svg width="203px" height="351px" viewBox="0 0 203 351" version="1.1" xmlns="http://www.w3.org/2000/svg" xmlns:xlink="http://www.w3.org/1999/xlink">
    <!-- Generator: Sketch 52.5 (67469) - http://www.bohemiancoding.com/sketch -->
    <title>Group 2</title>
    <desc>Created with Sketch.</desc>
    <g id="Design" stroke="none" stroke-width="1" fill="none" fill-rule="evenodd">
        <g id="Desktop-HD-Copy-22" transform="translate(-619.000000, -308.000000)" fill="#213548">
            <g id="Group-2" transform="translate(619.000000, 308.000000)">
                <path d="M186.663146,197.908043 C186.663146,244.680277 149.524654,283.749379 103.875391,285.001057 C80.6791176,285.657465 58.6959103,277.085558 42.0733621,260.910268 C28.4175173,247.621239 19.8134341,230.615787 17.1652814,212.110894 C20.1384201,213.266042 23.3593203,213.925667 26.7346693,213.925667 C33.9229722,213.925667 40.4452147,211.042623 45.226691,206.383419 C50.0081673,211.042623 56.5304099,213.925667 63.7187128,213.925667 C78.3495154,213.925667 90.2517232,202.020242 90.2517232,187.386221 L90.2517232,185.9994 C95.0653763,190.240306 101.359163,192.833758 108.26431,192.833758 L120.974156,192.833758 C114.480873,201.32844 110.198137,212.905662 110.198137,226.886492 C110.198137,231.330112 113.798724,234.930699 118.242344,234.930699 C122.685963,234.930699 126.28655,231.330112 126.28655,226.886492 C126.28655,204.668394 140.460442,192.833758 150.689455,192.833758 C155.133074,192.833758 158.733661,189.233171 158.733661,184.789551 C158.733661,180.345932 155.133074,176.745345 150.689455,176.745345 L108.26431,176.745345 C102.076707,176.745345 97.0410334,171.712889 97.0410334,165.525286 C97.0410334,159.337682 102.076707,154.302009 108.26431,154.302009 L117.354263,154.302009 C117.946317,154.443587 118.557677,154.533682 119.19156,154.533682 C119.828661,154.533682 120.440021,154.443587 121.032075,154.302009 L172.116003,154.302009 C180.137686,154.302009 186.663146,160.830687 186.663146,168.85237 L186.663146,197.908043 Z M16.286854,141.257524 C16.286854,135.494654 20.9750175,130.806491 26.7346693,130.806491 C32.4943211,130.806491 37.1824846,135.494654 37.1824846,141.257524 L37.1824846,187.386221 C37.1824846,193.149091 32.4943211,197.837254 26.7346693,197.837254 C20.9750175,197.837254 16.286854,193.149091 16.286854,187.386221 L16.286854,180.863979 L16.286854,141.257524 Z M63.7187128,130.806491 C69.4783645,130.806491 74.1633104,135.494654 74.1633104,141.257524 L74.1633104,143.101256 L74.1633104,187.386221 C74.1633104,193.149091 69.4783645,197.837254 63.7187128,197.837254 C57.959061,197.837254 53.2708975,193.149091 53.2708975,187.386221 L53.2708975,141.257524 C53.2708975,135.494654 57.959061,130.806491 63.7187128,130.806491 Z M90.2517232,27.0362281 C90.2517232,21.2733587 94.9398867,16.5884128 100.699539,16.5884128 C106.45919,16.5884128 111.147354,21.2733587 111.147354,27.0362281 L111.147354,138.213596 L108.26431,138.213596 C101.359163,138.213596 95.0653763,140.810266 90.2517232,145.051172 L90.2517232,143.101256 L90.2517232,141.257524 L90.2517232,27.0362281 Z M137.683582,130.806491 C142.378181,130.806491 146.316624,133.943731 147.626221,138.213596 L127.740943,138.213596 C129.053757,133.943731 132.988983,130.806491 137.683582,130.806491 Z M202.751559,168.85237 C202.751559,151.959536 189.008837,138.213596 172.116003,138.213596 L164.033184,138.213596 C162.517656,125.011445 151.287944,114.718078 137.683582,114.718078 C133.976812,114.718078 130.443796,115.490322 127.235767,116.870708 L127.235767,27.0362281 C127.235767,12.4054255 115.333559,0.5 100.699539,0.5 C86.0655182,0.5 74.1633104,12.4054255 74.1633104,27.0362281 L74.1633104,116.86749 C70.9552808,115.490322 67.4254831,114.718078 63.7187128,114.718078 C56.5304099,114.718078 50.0081673,117.601122 45.226691,122.260326 C40.4452147,117.601122 33.9229722,114.718078 26.7346693,114.718078 C12.100649,114.718078 0.198441181,126.623504 0.198441181,141.257524 L0.198441181,180.863979 L0.198441181,187.386221 L0.198441181,199.848306 C0.198441181,223.134675 7.98845068,245.1211 22.3071381,262.985673 C16.3705138,274.578983 13.2525794,287.430408 13.2525794,300.500634 L13.2525794,342.127794 C13.2525794,346.571413 16.8563838,350.172 21.2967858,350.172 C25.7404054,350.172 29.3409922,346.571413 29.3409922,342.127794 L29.3409922,300.500634 C29.3409922,291.922292 31.0399286,283.472658 34.2447404,275.5829 C52.8429457,292.137877 76.4414296,301.124865 101.446041,301.124865 C102.398475,301.124865 103.357344,301.111994 104.312996,301.083035 C124.993042,300.516723 144.192954,293.434603 160.049693,281.838075 C161.825854,287.864795 162.733241,294.103881 162.733241,300.500634 L162.733241,342.127794 C162.733241,346.571413 166.337045,350.172 170.777447,350.172 C175.221067,350.172 178.821654,346.571413 178.821654,342.127794 L178.821654,300.500634 C178.821654,290.10752 176.897479,280.032955 173.136008,270.466785 C191.396357,251.714131 202.751559,225.991977 202.751559,197.908043 L202.751559,168.85237 Z" id="Fill-1"></path>
            </g>
        </g>
    </g>
</svg>