
<svg width="270px" height="73px" viewBox="0 0 270 73" version="1.1" xmlns="http://www.w3.org/2000/svg" xmlns:xlink="http://www.w3.org/1999/xlink">
    <g id="Page-1" stroke="none" stroke-width="1" fill="none" fill-rule="evenodd">
        <g id="Hands-Mobile" transform="translate(-6.000000, -299.000000)" fill="#213548" fill-rule="nonzero">
            <g id="Group-2" transform="translate(0.000000, 297.000000)">
                <g id="Icon/Rock" transform="translate(258.250000, 19.566987) rotate(-120.000000) translate(-258.250000, -19.566987) translate(243.250000, 6.566987)">
                    <g id="Rock-Expanded">
                        <path d="M28.3580874,21.4243418 L22.7019269,21.4243418 C22.271376,21.4238426 21.8414479,21.3927251 21.4156318,21.3312418 C25.8008798,16.4794559 25.791025,9.24335445 21.3925768,4.40272037 C21.8263469,4.33893473 22.2644602,4.3066442 22.7032319,4.30612036 L28.3582324,4.30612036 C28.8910933,4.30612035 29.3230624,3.8890467 29.3230624,3.37456028 C29.3230624,2.86007386 28.8910933,2.44300021 28.3582324,2.4430002 L22.7032319,2.4430002 C21.6945335,2.44325498 20.690964,2.58155042 19.7224666,2.85376024 C17.3558489,1.00465181 14.4028788,-0.00288437908 11.3584309,4.97377747e-16 L7.2759556,4.97377747e-16 C5.04829661,0.00246895333 3.24308236,1.74549707 3.24060527,3.89634032 L3.24060527,4.92296041 C1.91670049,5.06865089 0.794141157,5.92924657 0.34711719,7.14121586 C-0.099906778,8.35318514 0.206571573,9.70514438 1.13709009,10.6260009 C-0.185585062,11.9339729 -0.185585062,14.0220293 1.13709009,15.3300013 C-0.185661937,16.637943 -0.185661937,18.7260599 1.13709009,20.0340017 C0.156856693,21.0055157 -0.12524772,22.4494572 0.421055676,23.6989986 C0.967359072,24.94854 2.23576705,25.7605376 3.6405153,25.7600021 C3.6463153,25.7600021 3.6516803,25.7600021 3.6574803,25.7591621 L11.3584309,25.7591621 C14.4146158,25.7618943 17.3781998,24.7465171 19.7490016,22.8844019 C20.7087726,23.1515458 21.7026352,23.2872703 22.7014919,23.2876019 L28.3583774,23.2876019 C28.886665,23.281349 29.3115238,22.8660811 29.3115238,22.3559719 C29.3115238,21.8458627 28.886665,21.4305947 28.3583774,21.4243418 L28.3580874,21.4243418 Z M5.35963544,3.89620032 C5.36083406,2.87482065 6.21809809,2.04711745 7.2759556,2.04596017 L11.3584309,2.04596017 C17.2404564,2.04551686 22.1243578,6.43103466 22.5498663,12.0953522 C22.9753749,17.7596697 18.7980298,22.7797417 12.9775011,23.598822 C13.4705196,22.3695627 13.1747796,20.9755618 12.220891,20.0324617 C13.5431361,18.7247014 13.5431361,16.6372015 12.220891,15.3294413 C13.2425142,14.3184845 13.5022418,12.7994332 12.8713611,11.525081 C13.5405388,11.6900633 14.2286957,11.7723876 14.9193412,11.770081 C15.5044953,11.770081 15.9788563,11.3120772 15.9788563,10.7471009 C15.9788563,10.1821246 15.5044953,9.72412081 14.9193412,9.72412081 C11.992661,9.72412081 10.4339109,7.92190066 10.4339109,6.62088055 C10.4339109,6.25540496 10.2319684,5.91769158 9.90415333,5.73495378 C9.57633822,5.55221598 9.17245334,5.55221598 8.84463823,5.73495378 C8.51682311,5.91769158 8.31488068,6.25540496 8.31488069,6.62088055 L8.31488069,12.013261 C8.31576158,12.8013824 7.65475921,13.4409706 6.83849057,13.4418211 C6.02222192,13.4426716 5.35979134,12.8044624 5.35891044,12.016341 L5.35963544,3.89620032 Z M9.71746581,19.0092016 L3.6405153,19.0092016 C3.6344253,19.0092016 3.6284803,19.0100416 3.6223903,19.0101816 C2.86241882,19.0053491 2.25039764,18.406597 2.25540272,17.6728315 C2.2604078,16.9390659 2.88054382,16.3481489 3.6405153,16.3529814 L9.71746581,16.3529814 C9.72254081,16.3529814 9.72732581,16.3529814 9.73196581,16.3529814 C10.4918572,16.3544891 11.106605,16.9504832 11.1050434,17.6841715 C11.1034818,18.4178597 10.4862022,19.0114093 9.72631081,19.0099016 L9.71746581,19.0092016 Z M10.4346359,12.016341 L10.4346359,11.845821 C10.9586952,12.154148 11.2075905,12.7605281 11.0445575,13.3317649 C10.8815246,13.9030017 10.3460631,14.3006961 9.73240081,14.3063212 L9.71790081,14.3063212 L9.53230079,14.3063212 C10.1116393,13.6744242 10.4324552,12.8602453 10.4346359,12.016341 Z M3.24060527,11.706661 L3.24060527,12.019421 C3.24328605,12.8623305 3.56432253,13.6753511 4.14352034,14.3060412 L3.6405153,14.3060412 C3.6367453,14.3060412 3.6331203,14.3060412 3.6293503,14.3060412 C2.94931397,14.3011499 2.37498756,13.8173103 2.27781369,13.1674431 C2.18063982,12.5175759 2.58977163,11.8966479 3.24060527,11.706241 L3.24060527,11.706661 Z M3.24060527,7.00378058 L3.24060527,9.54534079 C2.66062523,9.37577875 2.26395966,8.85965017 2.26395966,8.27456069 C2.26395966,7.6894712 2.66062523,7.17334262 3.24060527,7.00378058 Z M3.6405153,23.713202 C3.6377603,23.713202 3.6350053,23.713202 3.6321053,23.713202 C2.87752435,23.7076053 2.26837858,23.1163017 2.26662915,22.3877212 C2.26487972,21.6591408 2.87117933,21.0651165 3.6257253,21.0561417 L3.6402253,21.0561417 C3.6479103,21.0561417 3.6547253,21.0553017 3.6627003,21.0550217 L9.72674581,21.0550217 C10.4816074,21.0645453 11.0876404,21.6593787 11.0850952,22.3882686 C11.08255,23.1171586 10.4723768,23.708033 9.71746581,23.712642 L3.6405153,23.713202 Z" id="Shape"></path>
                    </g>
                </g>
                <g id="Icon/Paper" transform="translate(22.000000, 26.000000) rotate(-60.000000) translate(-22.000000, -26.000000) translate(1.000000, 13.000000)">
                    <g id="Paper-Expanded">
                        <path d="M40.6753228,21.4243415 L35.2142024,21.4243415 C34.7985506,21.4238191 34.3834993,21.3927487 33.9724023,21.3313815 C38.2062309,16.4794461 38.1966562,9.24343429 33.9500023,4.4027203 C34.3687672,4.3389291 34.791727,4.30663852 35.2153224,4.30612029 L40.6753228,4.30612029 C41.1898092,4.30612029 41.6068828,3.88904665 41.6068828,3.37456023 C41.6068828,2.86007381 41.1898092,2.44300017 40.6753228,2.44300017 L35.2153224,2.44300017 C34.2414074,2.44326437 33.2724451,2.58155962 32.3373422,2.85376019 C30.0524066,1.00471234 27.2013724,-0.00282015094 24.2620017,-4.97381135e-16 L16.9058412,-4.97381135e-16 C14.9915095,0.010737874 13.4432206,1.56171285 13.4358009,3.47606024 C13.4370845,3.96712438 13.5431892,4.45225614 13.7470209,4.89902033 L5.47400037,4.89902033 C4.31317775,4.89857463 3.2336398,5.49489606 2.6159785,6.47775102 C1.9983172,7.46060598 1.92927779,8.69196093 2.43320017,9.73770066 C0.991703198,10.1562798 7.14972881e-05,11.4768206 7.14972881e-05,12.9778609 C7.14972881e-05,14.4789012 0.991703198,15.799442 2.43320017,16.2180211 C1.92960462,17.2636984 1.99881285,18.4948099 2.6164328,19.4774568 C3.23405274,20.4601038 4.31337581,21.056331 5.47400037,21.0560014 L5.56920038,21.0560014 C5.12195843,22.0987146 5.22873384,23.2963978 5.85337561,24.2435508 C6.47801739,25.1907038 7.53687876,25.7604919 8.67146059,25.7600018 L24.2620017,25.7600018 C27.2126935,25.7627434 30.0739849,24.7474161 32.3629622,22.8853816 C33.2896614,23.1523984 34.2492414,23.2880742 35.2136424,23.2884416 L40.6754628,23.2884416 C41.1855336,23.2821887 41.5957421,22.8669207 41.5957421,22.3568115 C41.5957421,21.8467023 41.1855336,21.4314344 40.6754628,21.4251815 L40.6753228,21.4243415 Z M18.1388212,23.7133416 L8.67132059,23.7133416 C7.93747772,23.7172076 7.33944654,23.1254444 7.33558055,22.3916015 C7.33171455,21.6577587 7.92347772,21.0597275 8.65732059,21.0558614 L18.1353212,21.0558614 C18.4066324,21.0558986 18.6668462,20.9481562 18.8587184,20.7563365 C19.0505906,20.5645168 19.1584042,20.3043325 19.1584413,20.0330214 L19.1584413,20.0323214 C19.158364,19.4673224 18.7003202,19.0093413 18.1353212,19.0093413 L8.67132059,19.0093413 C8.66222059,19.0093413 8.65326059,19.0093413 8.64430059,19.0093413 L5.47400037,19.0093413 C4.7464785,19.0064869 4.15656006,18.4190357 4.15065662,17.6915322 C4.14475318,16.9640287 4.72506063,16.3670815 5.45244037,16.3524211 L18.1364412,16.3524211 C18.7014402,16.3524211 19.159484,15.89444 19.1595613,15.329441 L19.1595613,15.328321 C19.1595242,15.0570099 19.0517106,14.7968256 18.8598384,14.6050059 C18.6679662,14.4131862 18.4077524,14.3054438 18.1364412,14.305481 L5.47400037,14.305481 C5.46000037,14.305481 5.44600037,14.306321 5.43088037,14.306461 L3.37498023,14.306461 C2.6409827,14.306461 2.04596014,13.7114384 2.04596014,12.9774409 C2.04596014,12.2434434 2.6409827,11.6484208 3.37498023,11.6484208 L18.1360212,11.6484208 C18.7009975,11.6484208 19.1590013,11.190417 19.1590013,10.6254407 C19.1590013,10.0604644 18.7009975,9.60246065 18.1360212,9.60246065 L5.47400037,9.60246065 C4.74000284,9.60246065 4.14498028,9.00743809 4.14498028,8.27344056 C4.14498028,7.53944304 4.74000284,6.94442047 5.47400037,6.94442047 L16.8679011,6.94442047 C16.8819011,6.94442047 16.8959012,6.94554047 16.9089212,6.94554047 L21.7179215,6.94554047 C22.9788591,6.95250603 23.9992218,7.97318097 24.0058016,9.23412063 C24.0074991,9.79781641 24.4649434,10.2538833 25.0286417,10.2538807 L25.0318617,10.2538807 C25.5967843,10.2521051 26.0533254,9.79274347 26.0516218,9.22782063 C26.0383021,6.86173672 24.1366548,4.94000135 21.7708415,4.90182033 C21.7544615,4.90182033 21.7382215,4.89944033 21.7215615,4.89944033 L16.8901612,4.89944033 C16.102349,4.89429856 15.4678693,4.25148239 15.4730111,3.46367024 C15.4781528,2.67585808 16.120969,2.04137837 16.9087812,2.04652014 L24.2636817,2.04652014 C28.1341616,2.04684525 31.710459,4.11202211 33.6454174,7.46411859 C35.5803758,10.8162151 35.5800289,14.945968 33.6445074,18.2977393 C31.7089859,21.6495107 28.1323416,23.7140867 24.2618617,23.7137616 L18.1388212,23.7133416 Z" id="Shape"></path>
                    </g>
                </g>
                <g id="Icon/Scissors" transform="translate(139.000000, 53.000000) rotate(-90.000000) translate(-139.000000, -53.000000) translate(117.000000, 40.000000)">
                    <g id="Scissors-Expanded">
                        <path d="M42.9045429,21.3890615 L37.4424426,21.4243415 C37.0270168,21.4238477 36.6121927,21.3927301 36.2013425,21.3312415 C40.4352742,16.4792714 40.4256395,9.24311857 36.1788025,4.4024403 C36.5976155,4.33865989 37.0206211,4.30636939 37.4442626,4.30584029 L42.9042629,4.30584029 C43.2370773,4.3058403 43.5446104,4.12828596 43.7110176,3.84006027 C43.8774248,3.55183458 43.8774248,3.19672588 43.7110176,2.90850019 C43.5446104,2.6202745 43.2370773,2.44272016 42.9042629,2.44272017 L37.4435626,2.44272017 C36.4697808,2.44305823 35.5009609,2.58140047 34.5660024,2.85362019 C32.2810684,1.00468316 29.4301017,-0.00279350438 26.4908018,-9.94757187e-16 C26.4727418,-9.94757187e-16 26.4546818,-9.94757187e-16 26.4367618,0.0014000001 C26.3726418,0.000466666698 26.3084751,-9.94757187e-16 26.2442618,-9.94757187e-16 L22.5496615,-9.94757187e-16 C20.3978269,-1.38906124e-09 18.6533986,1.74436563 18.6533213,3.89620027 L18.6533213,4.63148032 L5.30978036,2.27864016 C4.12257243,2.0692932 2.91386179,2.50921654 2.13895805,3.43269531 C1.36405431,4.35617407 1.14068379,5.62290986 1.552988,6.75573556 C1.96529222,7.88856126 2.95063234,8.71537369 4.13784028,8.92472061 L13.7859409,10.6260007 L2.9285202,12.5407809 C1.09329442,12.8644805 -0.132039624,14.6146353 0.191660013,16.4498611 C0.51535965,18.2850869 2.2655145,19.5104209 4.10074028,19.1867213 L14.513241,17.0961012 C14.2382882,18.4007766 14.7592558,19.744784 15.8417011,20.5233014 C15.1386219,21.5566469 15.0643766,22.8939969 15.6487519,23.9988177 C16.2331272,25.1036384 17.380372,25.759623 18.6302213,25.7600018 C18.7879073,25.7588982 18.9405501,25.7590218 19.1013213,25.7590218 L26.4908018,25.7590218 C29.4415627,25.761779 32.3029181,24.7463971 34.5919024,22.8842616 C35.5182416,23.1514272 36.4775062,23.2871993 37.4416026,23.2876016 L42.9045429,23.2876016 C43.2401038,23.2917152 43.5519502,23.1150527 43.7209293,22.8251146 C43.8899085,22.5351766 43.8899085,22.1767665 43.7209293,21.8868284 C43.5519502,21.5968904 43.2401038,21.3849479 42.9045429,21.3890615 Z M20.6992814,3.89620027 C20.700516,2.87474337 21.5283445,2.04704014 22.5498015,2.04596014 L26.2442618,2.04596014 C26.3195818,2.04596014 26.3946685,2.04670681 26.4695218,2.04820014 C26.5001818,2.04918014 26.5295818,2.04820014 26.5589818,2.04624014 C32.453359,2.08303024 37.2363491,6.82629041 37.3223031,12.7201556 C37.408257,18.6140209 32.7656194,23.4947409 26.8748218,23.7034016 C27.5369309,22.9961734 27.8624296,22.038078 27.7681623,21.0738821 C27.6738951,20.1096861 27.168992,19.2327773 26.3824418,18.6671813 C27.4209288,17.1411975 27.0404145,15.0639634 25.5284417,14.005181 C25.398922,13.9144964 25.2632625,13.8329136 25.1224417,13.7610209 C25.4335626,13.2320208 25.5983321,12.6297669 25.5998417,12.0160608 L25.5998417,10.3997607 C26.6800818,11.2257608 28.1523219,11.7700808 29.930742,11.7700808 C30.4957183,11.7700808 30.9537221,11.312077 30.9537221,10.7471007 C30.9537221,10.1821244 30.4957183,9.72412066 29.930742,9.72412066 C27.1048418,9.72412066 25.5998417,7.92190054 25.5998417,6.62088045 C25.6041506,6.25257822 25.4101328,5.91039407 25.0918725,5.72498789 C24.7736122,5.5395817 24.3802512,5.5395817 24.0619908,5.72498789 C23.7437305,5.91039407 23.5497128,6.25257822 23.5540216,6.62088045 L23.5540216,12.0131208 C23.5596282,12.5263135 23.289251,13.0029974 22.8459099,13.2615449 C22.4025687,13.5200924 21.854544,13.5206838 21.4106459,13.2630937 C20.9667478,13.0055037 20.6953424,12.5294044 20.6998414,12.0162008 L20.6992814,3.89620027 Z M23.8233816,18.0782012 L18.0460012,19.0968413 C17.3233697,19.2244191 16.6341389,18.7420327 16.5065611,18.0194012 C16.3789833,17.2967697 16.8613697,16.6075389 17.5840012,16.4799611 L23.3618016,15.4613211 C23.8292122,15.3787927 24.3051458,15.5518939 24.6103227,15.9154192 C24.9154997,16.2789445 25.0035564,16.7776657 24.8413228,17.2237193 C24.6790891,17.669773 24.2912122,17.9953929 23.8238016,18.0779212 L23.8233816,18.0782012 Z M3.41516023,5.37166037 C3.54369011,4.64932679 4.2324642,4.16718493 4.95516034,4.29366029 L18.6538813,6.70908046 L18.6538813,9.40688064 L4.49400031,6.90984047 C3.77180642,6.78224879 3.28918288,6.0941376 3.41516023,5.37166037 Z M3.73534025,17.1736612 C3.01375115,17.2954719 2.32956034,16.8107125 2.20522792,16.0895536 C2.0808955,15.3683947 2.56326035,14.6825135 3.28398022,14.555661 L18.6533213,11.8451208 L18.6533213,12.0192808 C18.6550876,12.7670408 18.8992799,13.4940667 19.3492613,14.091281 L17.2292412,14.465081 L17.2239212,14.466201 C17.2177612,14.467321 17.2117412,14.467741 17.2055812,14.469001 L3.73534025,17.1736612 Z M17.3233212,22.6510215 C17.1959523,21.9285738 17.6782168,21.2396155 18.4006213,21.1120014 L24.1782816,20.0930814 C24.5253341,20.031701 24.8825508,20.1108347 25.1712106,20.3130437 C25.4598705,20.5152527 25.6562821,20.8239408 25.7171618,21.1710814 C25.7783515,21.5181267 25.6991441,21.8752643 25.4969706,22.1638998 C25.2947971,22.4525353 24.9862252,22.6490155 24.6391617,22.7101015 L18.8615013,23.7288816 C18.1392998,23.8548928 17.4513158,23.3727341 17.3233212,22.6508815 L17.3233212,22.6510215 Z" id="Shape"></path>
                    </g>
                </g>
            </g>
        </g>
    </g>
</svg>