<?xml version="1.0" encoding="UTF-8"?>
<svg width="63px" height="102px" viewBox="0 0 63 102" version="1.1" xmlns="http://www.w3.org/2000/svg" xmlns:xlink="http://www.w3.org/1999/xlink">
    <!-- Generator: Sketch 52.5 (67469) - http://www.bohemiancoding.com/sketch -->
    <title>Group 7 Copy 3</title>
    <desc>Created with Sketch.</desc>
    <g id="Design" stroke="none" stroke-width="1" fill="none" fill-rule="evenodd">
        <g id="Desktop-HD-Copy-26" transform="translate(-384.000000, -366.000000)" fill="#213548">
            <g id="Group-7-Copy-3" transform="translate(415.500000, 417.000000) scale(-1, 1) translate(-415.500000, -417.000000) translate(384.000000, 366.000000)">
                <g id="Group-2" transform="translate(31.500000, 51.000000) scale(-1, 1) translate(-31.500000, -51.000000) ">
                    <path d="M31.4065367,84.7363099 C17.0562119,84.7363099 5.38132862,73.1012354 5.38132862,58.7984435 L5.38132862,21.4695335 C5.38132862,19.715678 6.81315096,18.2891314 8.57291238,18.2891314 C10.3329885,18.2891314 11.7648109,19.715678 11.7648109,21.4695335 L11.7648109,44.1313301 C11.7648109,45.4841655 12.8649175,46.5805801 14.2223083,46.5805801 C15.5798565,46.5805801 16.6799631,45.4841655 16.6799631,44.1313301 L16.6799631,13.8143922 C16.6799631,12.0606935 18.1117855,10.6332059 19.8713895,10.6332059 C21.6314657,10.6332059 23.063288,12.0606935 23.063288,13.8143922 L23.063288,44.1313301 C23.063288,45.4841655 24.163552,46.5805801 25.5209428,46.5805801 C26.8783337,46.5805801 27.9784403,45.4841655 27.9784403,44.1313301 L27.9784403,8.7904264 C27.9784403,7.03672764 29.4102626,5.61018106 31.1704961,5.61018106 C32.9301002,5.61018106 34.3619225,7.03672764 34.3619225,8.7904264 L34.3619225,14.657209 L34.3619225,15.8398814 L34.3619225,44.1313301 C34.3619225,45.4841655 35.4620291,46.5805801 36.81942,46.5805801 C38.1768109,46.5805801 39.2770748,45.4841655 39.2770748,44.1313301 L39.2770748,15.8398814 L39.2770748,14.657209 C39.2770748,12.9036671 40.7087398,11.4760227 42.4689733,11.4760227 C44.2285774,11.4760227 45.6603997,12.9036671 45.6603997,14.657209 L45.6603997,39.3570413 L45.6603997,42.6378162 L45.6603997,51.1385972 C45.6603997,51.1950568 45.6651205,51.250105 45.6688972,51.3056236 C45.6651205,51.3609854 45.6603997,51.4161904 45.6603997,51.4724932 C45.6603997,54.4883783 43.1986535,56.9423332 40.1721408,56.9423332 C38.8147499,56.9423332 37.7146433,58.0389047 37.7146433,59.3915832 C37.7146433,60.7444186 38.8147499,61.8409901 40.1721408,61.8409901 C45.908557,61.8409901 50.575552,57.1901283 50.575552,51.4724932 C50.575552,51.4161904 50.5708312,51.3609854 50.5670545,51.3056236 C50.5708312,51.250105 50.575552,51.1950568 50.575552,51.1385972 L50.575552,42.6378162 L50.575552,39.3570413 C50.575552,37.4733286 52.1134352,35.9404497 54.0041205,35.9404497 C55.8943337,35.9404497 57.4322169,37.4733286 57.4322169,39.3570413 L57.4322169,58.7984435 C57.4322169,73.1012354 45.7573337,84.7363099 31.4065367,84.7363099 Z M62.3473692,39.3570413 C62.3473692,34.7722059 58.6043946,31.0419497 54.0041205,31.0419497 C52.7823743,31.0419497 51.6223134,31.3069963 50.575552,31.7793752 L50.575552,14.657209 C50.575552,10.2016034 46.9391103,6.57752267 42.4689733,6.57752267 C41.2810596,6.57752267 40.1531002,6.8355118 39.1354504,7.29503044 C38.4293743,3.55269814 35.1273235,0.711524227 31.1700241,0.711524227 C27.4854301,0.711524227 24.3695367,3.17457547 23.3872931,6.53455062 C22.3230647,6.02217951 21.1302728,5.73454907 19.8713895,5.73454907 C15.4012525,5.73454907 11.7648109,9.35878665 11.7648109,13.8143922 L11.7648109,14.0441516 C10.7846129,13.6241547 9.70574994,13.3906314 8.57291238,13.3906314 C4.10277532,13.3906314 0.466333699,17.0147121 0.466333699,21.4695335 L0.466333699,58.7984435 C0.466333699,66.2072012 3.10196314,73.0132525 7.48696822,78.3359839 C6.57679563,80.9635522 6.11525756,83.7096857 6.11525756,86.5063193 L6.11525756,99.1815056 C6.11525756,100.534341 7.21552152,101.630912 8.57291238,101.630912 C9.93030324,101.630912 11.0304098,100.534341 11.0304098,99.1815056 L11.0304098,86.5063193 C11.0304098,85.1006314 11.1759682,83.712195 11.4623642,82.3532432 C16.8521154,86.8932245 23.8135824,89.6349668 31.4065367,89.6349668 C38.9996484,89.6349668 45.9612728,86.8933814 51.3510241,82.3534 C51.6372626,83.712195 51.7826636,85.100945 51.7826636,86.5063193 L51.7826636,99.1815056 C51.7826636,100.534341 52.8829276,101.630912 54.2401611,101.630912 C55.5977093,101.630912 56.6978159,100.534341 56.6978159,99.1815056 L56.6978159,86.5063193 C56.6978159,83.7087447 56.2364352,80.9635522 55.3265774,78.3359839 C59.7117398,73.0132525 62.3473692,66.2072012 62.3473692,58.7984435 L62.3473692,39.3570413 Z" id="Fill-4-Copy-2"></path>
                </g>
            </g>
        </g>
    </g>
</svg>