<?xml version="1.0" encoding="UTF-8"?>
<svg width="62px" height="73px" viewBox="0 0 62 73" version="1.1" xmlns="http://www.w3.org/2000/svg" xmlns:xlink="http://www.w3.org/1999/xlink">
    <!-- Generator: Sketch 52.5 (67469) - http://www.bohemiancoding.com/sketch -->
    <title>Group Copy 2</title>
    <desc>Created with Sketch.</desc>
    <g id="Design" stroke="none" stroke-width="1" fill="none" fill-rule="evenodd">
        <g id="Desktop-HD-Copy-26" transform="translate(-161.000000, -145.000000)" fill="#213548">
            <g id="Group-Copy-2" transform="translate(161.000000, 145.000000)">
                <g id="Group-8">
                    <path d="M15.2417427,62.2002661 L3.15297411,62.2002661 C1.39526232,62.2002661 -0.0346765417,60.7678143 -0.0346765417,59.0082103 C-0.0346765417,57.2486062 1.39526232,55.8163118 3.15297411,55.8163118 L17.2336903,55.8163118 C18.9917165,55.8163118 20.4214981,57.2486062 20.4214981,59.0082103 C20.4214981,60.7678143 18.9917165,62.2002661 17.2336903,62.2002661 L15.2417427,62.2002661 Z M2.22467717,22.0592001 L2.22467717,28.1650986 C0.918616035,27.7660326 -0.0346765417,26.5485351 -0.0346765417,25.1123067 C-0.0346765417,23.6757636 0.918616035,22.4582661 2.22467717,22.0592001 Z M18.8956641,34.1005758 L18.8956641,33.6926976 C19.8091837,34.2546316 20.4214981,35.2615808 20.4214981,36.4110986 C20.4214981,38.17086 18.9917165,39.6022103 17.2336903,39.6022103 L16.8186684,39.6022103 C18.1101095,38.1323067 18.8956641,36.2068448 18.8956641,34.1005758 Z M-0.0346765417,36.4110986 C-0.0346765417,34.9747128 0.918616035,33.7573727 2.22467717,33.3581494 L2.22467717,34.1005758 C2.22467717,36.2068448 3.01038896,38.1323067 4.3016728,39.6022103 L3.15297411,39.6022103 C1.39526232,39.6022103 -0.0346765417,38.17086 -0.0346765417,36.4110986 Z M-0.0346765417,47.709261 C-0.0346765417,45.9494996 1.39526232,44.5173626 3.15297411,44.5173626 L17.2336903,44.5173626 C18.9917165,44.5173626 20.4214981,45.9494996 20.4214981,47.709261 C20.4214981,49.4688651 18.9917165,50.9011595 17.2336903,50.9011595 L3.15297411,50.9011595 C1.39526232,50.9011595 -0.0346765417,49.4688651 -0.0346765417,47.709261 Z M7.13514005,14.5937077 C7.13514005,12.1428194 9.12693045,10.1489057 11.5765025,10.1489057 L20.4436641,10.1489057 C34.7188431,10.1489057 46.6436466,21.4949057 47.0253409,35.440657 C47.219961,42.5377687 44.6086248,49.2432103 39.672223,54.3217027 C39.2825112,54.722657 38.8808518,55.1080326 38.4707034,55.4803473 C38.3957165,55.5409311 38.3237165,55.6056062 38.2558038,55.6756316 C34.439961,59.0640732 29.7921881,61.2153473 24.7844152,61.9327534 C25.1365549,61.0247839 25.331961,60.039393 25.331961,59.0082103 C25.331961,56.8128753 24.4544414,54.8200631 23.0339348,53.358657 C24.4544414,51.8974082 25.331961,49.9045961 25.331961,47.709261 C25.331961,45.513926 24.4545986,43.5211138 23.0339348,42.0598651 C24.4545986,40.5987737 25.331961,38.6061189 25.331961,36.4110986 C25.331961,35.1619717 25.0477339,33.977992 24.5413759,32.9202154 C25.9986684,33.2974082 27.5840833,33.5092154 29.2886597,33.5092154 C30.6448693,33.5092154 31.7440483,32.4091088 31.7440483,31.0515605 C31.7440483,29.6941697 30.6448693,28.5940631 29.2886597,28.5940631 C22.5074545,28.5940631 18.8956641,24.2644489 18.8956641,21.1387991 C18.8956641,19.7814082 17.7966422,18.6811443 16.4405898,18.6811443 C15.0845374,18.6811443 13.9855156,19.7814082 13.9855156,21.1387991 L13.9855156,34.1005758 C13.9855156,35.9906316 12.4489916,37.5286722 10.5598562,37.5286722 C8.67150686,37.5286722 7.13514005,35.9906316 7.13514005,34.1005758 L7.13514005,31.3392154 C7.17978634,31.1535301 7.20603962,30.9609209 7.20603962,30.7617027 C7.20603962,30.562327 7.17978634,30.3698753 7.13514005,30.18419 L7.13514005,14.5937077 Z M64.4606597,58.2114945 L51.7553322,58.2114945 C49.1372361,58.2114945 46.5549828,57.6997585 44.1464414,56.7208194 C49.3948955,50.8201189 52.1518038,43.2702813 51.9336029,35.3062712 C51.7608344,28.9880935 49.6011488,23.120124 46.0607296,18.2748397 C47.8984588,17.7338346 49.8034719,17.4592407 51.7553322,17.4592407 L64.4606597,17.4592407 C65.8167121,17.4592407 66.9157339,16.3591341 66.9157339,15.0017433 C66.9157339,13.644195 65.8167121,12.5440884 64.4606597,12.5440884 L51.7553322,12.5440884 C48.582616,12.5440884 45.5070527,13.1278956 42.5896379,14.2766265 C36.8670527,8.70024581 29.0135505,5.23375342 20.4436641,5.23375342 L11.5765025,5.23375342 C6.419699,5.23375342 2.22467717,9.4327585 2.22467717,14.5937077 L2.22467717,17.0600174 C-1.80465034,17.522657 -4.94498222,20.9559463 -4.94498222,25.1123067 C-4.94498222,27.3076417 -4.06761977,29.3004539 -2.64711322,30.7617027 C-4.06761977,32.222794 -4.94498222,34.2157636 -4.94498222,36.4110986 C-4.94498222,38.6061189 -4.06761977,40.5987737 -2.64711322,42.0598651 C-4.06761977,43.5211138 -4.94498222,45.513926 -4.94498222,47.709261 C-4.94498222,49.9045961 -4.06761977,51.8974082 -2.64711322,53.358657 C-4.06761977,54.8200631 -4.94498222,56.8128753 -4.94498222,59.0082103 C-4.94498222,63.4788194 -1.31212632,67.115261 3.15297411,67.115261 L15.2417427,67.115261 L17.2336903,67.115261 L21.0353846,67.115261 C28.1443628,67.115261 34.8612711,64.7425808 40.3145636,60.3670174 C43.8504239,62.1766621 47.7700221,63.1266468 51.7553322,63.1266468 L64.4606597,63.1266468 C65.8167121,63.1266468 66.9157339,62.0265402 66.9157339,60.6691494 C66.9157339,59.3116011 65.8167121,58.2114945 64.4606597,58.2114945 Z" id="Fill-1-Copy" transform="translate(30.985376, 36.174507) rotate(-270.000000) translate(-30.985376, -36.174507) "></path>
                </g>
            </g>
        </g>
    </g>
</svg>