<?xml version="1.0" encoding="utf-8"?>
<!-- Generator: Adobe Illustrator 23.0.1, SVG Export Plug-In . SVG Version: 6.00 Build 0)  -->
<svg version="1.1" id="Layer_1" xmlns="http://www.w3.org/2000/svg" xmlns:xlink="http://www.w3.org/1999/xlink" x="0px" y="0px"
	 viewBox="0 0 184.3 312.1" style="enable-background:new 0 0 184.3 312.1;" xml:space="preserve">
<style type="text/css">
	.st0{fill:#213548;}
</style>
<title>Scissors-Expanded</title>
<g>
	<g id="Layer_1-2">
		<path class="st0" d="M31.2,305.4v-39c0-3,0.2-5.9,0.7-8.9c34.7,30.2,86.3,30.2,120.9-0.2c0.5,3,0.7,6,0.7,9v39
			c0,3.7,3,6.7,6.7,6.7c3.7,0,6.7-3,6.7-6.7v-39c0-7-1-13.9-2.9-20.6c13.2-16.3,20.4-36.7,20.4-57.7c0-0.1,0-0.3,0-0.4
			c0-0.5,0-0.9,0-1.4V160c0-15.4-12.5-27.8-27.8-27.8h-5.3L168,36.9c2.3-13.1-6.4-25.6-19.6-27.9c-13.1-2.3-25.6,6.4-27.9,19.6l0,0
			l-12.2,68.9L94.7,19.9C92.4,6.8,79.9-2,66.8,0.3S44.9,15.1,47.2,28.3l14.9,74.4c-9.3-2-18.9,1.8-24.5,9.5c-11-7.5-26-4.6-33.5,6.4
			c-2.7,4-4.2,8.7-4.2,13.5c0,1.1,0.1,2.3,0.3,3.4v52.8c0,21.1,7.2,41.5,20.5,57.9c-1.9,6.6-2.9,13.5-2.9,20.4v39
			c0,3.7,2.9,6.7,6.6,6.7c3.7,0,6.7-2.9,6.7-6.6C31.2,305.5,31.2,305.5,31.2,305.4L31.2,305.4z M156.4,146.8
			c7.3,0,13.2,5.9,13.2,13.2v26.4c0,0.5,0,1.1,0,1.6c0,0.2,0,0.4,0,0.6c-0.3,42.7-35.1,77.2-77.9,76.9
			c-41.5-0.3-75.4-33.2-76.8-74.6c9.7,9.1,24.9,8.6,34-1.1c0.7-0.8,1.4-1.6,2-2.4c10.9,7.4,25.7,4.7,33.3-6.1
			c0.6-0.9,1.2-1.9,1.7-2.9c3.8,2.2,8.1,3.4,12.5,3.4H110c-5.9,7.7-9.8,18.2-9.8,30.9c0,4,3.3,7.3,7.3,7.3c4,0,7.3-3.3,7.3-7.3
			c0-20.2,12.9-30.9,22.2-30.9c4,0,7.3-3.2,7.4-7.2c0-4-3.2-7.3-7.2-7.4c-0.1,0-0.1,0-0.2,0H98.4c-5.6,0.1-10.2-4.5-10.3-10.1
			c-0.1-5.6,4.5-10.2,10.1-10.3c0.1,0,0.1,0,0.2,0L156.4,146.8z M55.1,169.1l-7.3-41.3l0,0c-0.9-5.2,2.5-10.1,7.7-11
			s10.1,2.5,11,7.7l0,0l7.3,41.3c0.9,5.2-2.5,10.1-7.7,11C61,177.7,56,174.3,55.1,169.1L55.1,169.1z M145.9,23.4
			c5.2,0.9,8.6,5.8,7.7,11l-17.3,97.8h-19.3l17.8-101.1C135.8,25.9,140.7,22.5,145.9,23.4z M61.6,25.6c-0.9-5.2,2.6-10.1,7.8-10.9
			c5.1-0.9,10,2.6,10.9,7.7l19.4,109.8h-1.2c-5.3,0-10.5,1.8-14.8,5L80.9,122l0,0l0,0c0,0,0-0.1,0-0.1L61.6,25.6z M22.5,122.7
			c5.2-0.9,10.1,2.5,11,7.7l0,0l7.3,41.3l0,0c0.9,5.2-2.5,10.1-7.7,11c0,0,0,0,0,0c-5.2,0.9-10.1-2.5-11-7.7c0,0,0,0,0,0l-7.3-41.3
			C13.9,128.5,17.3,123.6,22.5,122.7L22.5,122.7z"/>
	</g>
</g>
</svg>
