<?xml version="1.0" encoding="UTF-8"?>
<svg width="59px" height="102px" viewBox="0 0 59 102" version="1.1" xmlns="http://www.w3.org/2000/svg" xmlns:xlink="http://www.w3.org/1999/xlink">
    <!-- Generator: Sketch 52.5 (67469) - http://www.bohemiancoding.com/sketch -->
    <title>Group 6</title>
    <desc>Created with Sketch.</desc>
    <g id="Design" stroke="none" stroke-width="1" fill="none" fill-rule="evenodd">
        <g id="Desktop-HD-Copy-26" transform="translate(-572.000000, -116.000000)" fill="#213548">
            <g id="Group-6" transform="translate(572.000000, 116.000000)">
                <g id="Group-3-Copy" transform="translate(29.500000, 51.000000) scale(-1, 1) translate(-29.500000, -51.000000) ">
                    <path d="M47.3420331,77.7554419 C42.5625181,81.9144751 36.4264462,84.2053157 30.0648103,84.2053157 C29.6749113,84.2053157 29.2877089,84.2023216 28.9054238,84.1945998 C28.8348359,84.1945998 28.7720206,84.1957029 28.7061914,84.1996426 C15.7705214,83.7273547 5.28448967,72.6920176 5.28448967,59.4953763 L5.28448967,59.0311254 L8.52915398,64.6145864 C10.0417973,67.2160308 12.7939325,68.6724488 15.6204626,68.6724488 C17.0057305,68.6724488 18.4089229,68.3226059 19.6925124,67.5862024 C21.5504812,66.5202847 22.8864168,64.8103093 23.4684102,62.7630981 C24.1251156,62.9280915 24.8019664,63.0149219 25.4837345,63.0149219 C26.8472708,63.0139764 28.2274627,62.6751646 29.4937621,61.9628718 C28.9747427,62.802022 28.5677122,63.7229598 28.3007472,64.7097689 C27.98905,65.8623594 27.6145376,68.1371262 28.6054649,70.4260757 C29.1465331,71.6738487 30.6028647,72.2468346 31.860757,71.7141909 C33.1169045,71.1768197 33.6974702,69.7289113 33.1575124,68.4803504 C32.8702434,67.8169096 32.8431186,66.884468 33.085021,65.9874834 C33.7353815,63.5839682 35.9339171,61.9055102 38.4305083,61.9055102 C39.5521422,61.9055102 40.5333934,61.1576028 40.8236762,60.0817572 C41.1139591,59.0051235 40.6398304,57.86971 39.6692071,57.3129555 L30.9193206,52.2947586 C29.2693084,51.347819 28.7023844,49.2441916 29.6546074,47.6041849 C30.607782,45.9651236 32.7241502,45.4045871 34.3827281,46.3515267 L44.6412923,52.1880723 C49.5813353,54.9991072 52.6848238,60.6730232 52.1883291,65.9855924 C51.7335527,70.8534514 50.7876747,73.6006636 49.3581506,75.5878343 C49.3040597,75.6541783 49.2529826,75.7225711 49.206347,75.7936427 C48.6536992,76.5245307 48.0326843,77.1547207 47.3420331,77.7554419 M5.3953682,47.5052203 C5.61791838,46.6804105 6.15010361,45.9911255 6.89484567,45.5642226 C7.39070589,45.2796207 7.94033981,45.1344831 8.49774633,45.1344831 C8.77740134,45.1344831 9.05848397,45.1710433 9.33575961,45.244006 C10.1661589,45.465258 10.8599825,45.9949076 11.2895377,46.7341477 L18.3930604,58.9570595 C18.8226156,59.696142 18.9368252,60.5576696 18.714275,61.3824793 C18.4917248,62.2072891 17.959381,62.8967317 17.2152734,63.323477 C15.6791537,64.2069091 13.7069752,63.6791507 12.8199469,62.1533944 L5.71658283,49.9296946 C5.28686903,49.1904545 5.17281801,48.3290846 5.3953682,47.5052203 M15.259116,41.8475358 C15.4811903,41.0225684 16.0133755,40.3332834 16.757959,39.9065381 C17.5031769,39.4786897 18.3702185,39.3663302 19.1995074,39.5874247 C20.0292722,39.8083615 20.7230958,40.3372231 21.1528096,41.0764632 L24.5779886,46.9702128 C23.529322,50.5239547 24.971536,54.4604752 28.2772708,56.4572587 C27.9982502,56.9525543 27.5885231,57.3728385 27.0785453,57.6659501 C25.5427429,58.5473336 23.5705643,58.0214662 22.6836947,56.4958675 L15.5803306,44.2731132 C15.1507755,43.5338731 15.0365658,42.6723456 15.259116,41.8475358 M21.5515916,5.15516217 C22.3972189,5.00892154 23.2517291,5.19455889 23.9552288,5.6848117 C24.6592043,6.17411899 25.1290501,6.90674044 25.2684811,7.68537726 L30.2894226,40.9034328 C30.3122646,41.0323388 30.3404997,41.1588811 30.3714315,41.2841627 C29.4293606,41.5473328 28.5332907,41.9728174 27.7287472,42.5473792 L25.4436025,38.6154287 C25.0181716,37.8828073 24.4894761,37.2330765 23.879089,36.6782131 L18.9411081,8.85829647 C18.6333765,7.12200413 19.8038668,5.46072315 21.5515916,5.15516217 M41.9868698,40.8410284 L46.9859211,7.75266686 C47.2936527,6.0165321 48.963017,4.85511673 50.7135971,5.15894425 C52.4611633,5.46560834 53.6319708,7.12688932 53.3234461,8.86207856 L48.7084247,43.4183619 C48.4849227,44.9009394 48.3716648,46.4129856 48.3716648,47.91274 L48.3716648,48.7052445 C47.9601929,48.4282067 47.5374585,48.164879 47.102986,47.9176252 L40.3146502,44.055013 C41.1615464,43.213499 41.7619402,42.1078694 41.9868698,40.8410284 M53.6146807,44.106859 L58.2120948,9.66104409 C58.960168,5.27335234 55.9932552,1.08658387 51.5738178,0.311571549 C47.1447043,-0.46706527 42.8907122,2.48831925 42.096162,6.95953205 L37.0971107,40.0478935 C37.0149432,40.5141931 36.6093403,40.8514291 36.1333081,40.8514291 C35.6571174,40.8514291 35.2505628,40.5141931 35.1790231,40.1102979 L30.1577643,6.89224245 C29.7783345,4.7569401 28.5851609,2.89583894 26.7973041,1.65279356 C25.00913,0.407857138 22.839464,-0.071837352 20.6907364,0.30794705 C16.2538503,1.08469283 13.2801166,5.30313626 14.0619768,9.71304776 L18.470945,34.5533115 C17.0146134,34.5321948 15.5746201,34.9014209 14.28072,35.6438128 C12.3654877,36.7421934 11.0690496,38.5003903 10.509581,40.4639229 C8.4354069,39.94168 6.27557559,40.234634 4.41697223,41.3014972 C2.52664397,42.3860102 1.17468728,44.1364854 0.609666786,46.2303424 C0.397585818,47.0163858 0.305900853,47.8158241 0.331756648,48.6067527 C0.331598023,48.6190444 0.329853153,48.6311786 0.329853153,48.6434704 L0.329853153,59.4953763 C0.329853153,66.0703741 2.51173326,72.1971948 6.17754565,77.1548783 C5.1112717,79.9780474 4.57036213,82.9409961 4.57036213,85.9838413 L4.57036213,98.7200137 C4.57036213,100.079358 5.67946469,101.181048 7.0477597,101.181048 C8.41605471,101.181048 9.52499864,100.079358 9.52499864,98.7200137 L9.52499864,85.9838413 C9.52499864,84.442484 9.69837523,82.9268133 10.0397352,81.4488058 C15.050842,86.0445123 21.6131379,88.9308737 28.7883589,89.1265967 C28.810725,89.1275422 28.8338842,89.1275422 28.8560916,89.1275422 C28.9190655,89.1275422 28.9818808,89.1254936 29.043903,89.1207659 C29.3816146,89.1254936 29.7221814,89.1275422 30.0648103,89.1275422 C37.4378361,89.1275422 44.5545247,86.5383896 50.1737979,81.827172 C50.4599565,83.1857285 50.6050979,84.5743842 50.6050979,85.9838413 L50.6050979,98.7200137 C50.6050979,100.079358 51.7140418,101.181048 53.0823369,101.181048 C54.4506319,101.181048 55.5597344,100.079358 55.5597344,98.7200137 L55.5597344,85.9838413 C55.5597344,83.0429548 55.0537222,80.1715641 54.0545465,77.4298674 C55.7486562,74.6446767 56.6769268,71.2006153 57.1215513,66.4411761 C57.5498375,61.8574462 56.1128581,57.2111544 53.3263013,53.4493978 L53.3263013,47.91274 C53.3263013,46.6562997 53.4211588,45.3900891 53.6146807,44.106859" id="Fill-7-Copy-2"></path>
                </g>
            </g>
        </g>
    </g>
</svg>