<?xml version="1.0" encoding="UTF-8"?>
<svg width="318px" height="331px" viewBox="0 0 318 331" version="1.1" xmlns="http://www.w3.org/2000/svg" xmlns:xlink="http://www.w3.org/1999/xlink">
    <!-- Generator: Sketch 52.5 (67469) - http://www.bohemiancoding.com/sketch -->
    <title>Group</title>
    <desc>Created with Sketch.</desc>
    <g id="Design" stroke="none" stroke-width="1" fill="none" fill-rule="evenodd">
        <g id="Desktop-HD-Copy-20" transform="translate(-516.000000, -361.000000)" fill="#213548">
            <g id="Group" transform="translate(720.000000, 515.500000) rotate(-30.000000) translate(-720.000000, -515.500000) translate(555.000000, 375.000000)">
                <path d="M311.243399,81.1554985 L269.414022,128.778957 C260.733963,138.414334 253.493647,148.334422 246.49329,157.931411 C233.500396,175.730627 221.230573,192.547751 200.578238,207.023209 C186.068813,217.615086 165.960382,222.768669 139.520274,222.63751 C93.1700999,222.490357 55.4583926,184.499076 55.4583926,137.944082 L55.4583926,107.943894 C55.4583926,101.117236 53.6539128,94.3833484 50.2401187,88.4684042 L17.38195,31.5710549 C14.5216576,26.6126106 16.226955,20.2434088 21.1860749,17.3803071 C26.1451948,14.5172054 32.5120649,16.2222704 35.3755567,21.1839138 L74.4022306,88.7659108 C78.3439311,95.5925691 84.8163825,100.483834 92.2326663,102.559983 L92.2326663,109.562586 C92.2326663,124.111622 104.067366,135.944709 118.615184,135.944709 C125.762716,135.944709 132.247965,133.078408 137.002321,128.446262 C141.756677,133.078408 148.241926,135.944709 155.389458,135.944709 C155.60062,135.944709 155.798985,135.919117 156.006948,135.912719 C147.470863,144.521218 142.98206,154.674833 140.067377,161.287158 C138.282094,165.327491 140.118568,170.049209 144.156251,171.83105 C148.190735,173.606493 152.922696,171.783065 154.70158,167.739534 C161.756328,151.744552 170.855513,136.104659 197.318017,135.81355 C225.41543,135.506447 241.543768,119.146779 254.504668,105.998904 C256.472319,104.005929 258.411175,102.035348 260.426817,100.087159 L294.084844,66.8463878 L294.475174,66.4305183 C296.426828,64.2104148 299.149545,62.8796323 302.134615,62.6844935 C305.142081,62.4733598 307.995975,63.4586506 310.22278,65.4132374 C314.84276,69.4727638 315.300279,76.5361478 311.243399,81.1554985 Z M108.229827,63.6985754 C108.229827,57.9723719 112.888201,53.3114342 118.615184,53.3114342 C124.342168,53.3114342 129.003741,57.9723719 129.003741,63.6985754 L129.003741,109.562586 C129.003741,115.28879 124.342168,119.949727 118.615184,119.949727 C112.888201,119.949727 108.229827,115.28879 108.229827,109.562586 L108.229827,63.6985754 Z M155.389458,53.3114342 C161.116442,53.3114342 165.778014,57.9723719 165.778014,63.6985754 L165.778014,109.562586 C165.778014,115.28879 161.116442,119.949727 155.389458,119.949727 C149.662474,119.949727 145.000902,115.28879 145.000902,109.562586 L145.000902,63.6985754 C145.000902,57.9723719 149.662474,53.3114342 155.389458,53.3114342 Z M192.163732,53.3114342 C197.890715,53.3114342 202.549089,57.9723719 202.549089,63.6985754 L202.549089,109.562586 C202.549089,115.28879 197.890715,119.949727 192.163732,119.949727 C186.436748,119.949727 181.775175,115.28879 181.775175,109.562586 L181.775175,63.6985754 C181.775175,57.9723719 186.436748,53.3114342 192.163732,53.3114342 Z M320.774507,53.3946081 C315.341871,48.6217055 308.344713,46.2640452 301.101199,46.7215017 C293.950468,47.1853562 287.414028,50.3523626 282.656472,55.6467015 L249.248001,88.647548 C248.166593,89.6904208 247.085185,90.8004725 246.003777,91.8849323 C245.933389,91.9521112 245.850204,92.0000962 245.779816,92.0736731 C237.19254,100.960485 227.683828,103.574065 222.71511,101.574692 C219.9508,100.455044 218.54625,97.6943097 218.54625,93.3692666 L218.54625,63.6985754 C218.54625,49.1527389 206.71155,37.3164524 192.163732,37.3164524 C185.0162,37.3164524 178.53415,40.1827531 173.776595,44.8148999 C169.022239,40.1827531 162.536989,37.3164524 155.389458,37.3164524 C148.241926,37.3164524 141.756677,40.1827531 137.002321,44.8148999 C132.247965,40.1827531 125.762716,37.3164524 118.615184,37.3164524 C104.067366,37.3164524 92.2326663,49.1527389 92.2326663,63.6985754 L92.2326663,85.099861 C90.6361496,83.9642173 89.2603938,82.511873 88.2557721,80.7684199 L49.2290981,13.1864229 C41.9599881,0.591974207 25.7868584,-3.74586486 13.1874944,3.52865286 C0.588130365,10.8031706 -3.74390083,26.9708982 3.52840856,39.5685458 L36.3865772,96.4658951 C38.3990201,99.9496021 39.4612316,103.919557 39.4612316,107.943894 L39.4612316,137.944082 C39.4612316,159.965973 46.5799682,180.362774 58.6066339,196.968764 C53.5611293,207.778172 50.9119994,219.656046 50.9119994,231.613894 L50.9119994,273.002509 C50.9119994,277.420323 54.4921641,281 58.9105799,281 C63.3289958,281 66.9091604,277.420323 66.9091604,273.002509 L66.9091604,231.613894 C66.9091604,224.438545 68.1153464,217.304784 70.4029404,210.529309 C88.3709516,227.839079 112.699434,238.549318 139.472283,238.632492 C139.702642,238.632492 139.9362,238.632492 140.16656,238.632492 C164.213492,238.632492 183.678837,234.566568 199.320861,226.447515 C199.455238,228.165376 199.544822,229.886436 199.544822,231.613894 L199.544822,273.002509 C199.544822,277.420323 203.124986,281 207.543402,281 C211.961818,281 215.541983,277.420323 215.541983,273.002509 L215.541983,231.613894 C215.541983,226.665047 215.081264,221.735393 214.201421,216.892113 C234.357843,201.690482 247.085185,184.255952 259.415796,167.358853 C266.179396,158.088162 273.173355,148.503969 281.363901,139.406023 L323.263665,91.7089875 C333.140313,80.4613163 332.02691,63.2731089 320.774507,53.3946081 Z" id="Fill-1"></path>
            </g>
        </g>
    </g>
</svg>